<svg width="370" height="197" viewBox="0 0 370 197" fill="none" xmlns="http://www.w3.org/2000/svg">
<g clip-path="url(#clip0_6_95)">
<mask id="mask0_6_95" style="mask-type:luminance" maskUnits="userSpaceOnUse" x="0" y="0" width="370" height="197">
<path d="M370 0H0V197H370V0Z" fill="white"/>
</mask>
<g mask="url(#mask0_6_95)">
<mask id="mask1_6_95" style="mask-type:luminance" maskUnits="userSpaceOnUse" x="0" y="0" width="370" height="197">
<path d="M0 0H370V197H0V0Z" fill="white"/>
</mask>
<g mask="url(#mask1_6_95)">
<path d="M129.197 154.541L117.192 120.213L140.358 143.38L129.197 154.541ZM101.672 150.474C101.672 150.474 105.325 134.583 105.396 133.165L109.439 150.474H101.672ZM187.645 163.831L167.194 143.38L187.645 122.543L192.676 117.417H187.645H166.321L153.776 129.962L141.231 117.417H116.214H114.86H95.4286L84.1976 148.915V117.417H74.7096H65.2216H56.6336L49.8466 130.766L43.0596 117.417H34.4716H24.9836H15.4956V169.343H34.4716V138.801L45.0796 162.71H54.6136L65.2216 138.801V169.343H76.9136H84.1976H96.9536L98.5496 162.817H112.631L114.298 169.343H114.413H134.374H141.231L153.776 156.798L166.321 169.343H187.645H193.157L187.645 163.831Z" fill="white"/>
<path d="M333.599 155.031C332.865 155.516 331.861 155.758 330.584 155.758C328.763 155.758 326.806 155.328 324.714 154.464C322.797 153.674 320.626 152.441 318.224 150.808C318.355 149.24 318.423 147.499 318.423 145.579V145.064C320.414 146.976 323.082 148.344 326.434 149.161C327.095 149.303 328.018 149.504 329.201 149.764C332.865 150.521 334.698 151.62 334.698 153.063C334.698 153.89 334.331 154.547 333.599 155.031ZM351.368 142.173C349.312 139.691 346.497 138.048 342.927 137.243C342.478 137.149 341.839 137.008 341.011 136.818C335.833 135.707 333.244 134.418 333.244 132.952C333.244 132.172 333.599 131.563 334.308 131.126C335.018 130.688 336.022 130.469 337.323 130.469C339.026 130.469 340.781 130.818 342.59 131.516C344.399 132.213 346.202 133.224 347.999 134.548L353.674 120.963C350.742 119.379 347.834 118.197 344.949 117.417C342.064 116.636 339.132 116.246 336.152 116.246C329.673 116.246 324.435 117.996 320.44 121.495C319.689 122.153 319.032 122.859 318.423 123.59V117.417H299.767V145.72C299.767 148.936 299.364 151.183 298.561 152.459C297.756 153.736 296.42 154.375 294.553 154.375C292.661 154.375 291.325 153.754 290.545 152.513C289.764 151.272 289.374 149.008 289.374 145.72V117.417H270.718V141.034L266.975 117.417H247.75C247.75 117.417 240.12 130.658 240.001 130.257L232.925 117.417H213.666L206.621 158.67V117.417H195.216L193.97 118.686L187.645 125.13V161.268L194.439 168.061L195.72 169.343H204.798H206.621H223.1C223.1 169.343 226.032 140.909 226.15 139.301C226.364 140.79 235.357 162.71 235.357 162.71H244.646C244.646 162.71 253.639 140.79 253.851 139.301C253.946 140.885 256.902 169.343 256.902 169.343H275.204L273.873 160.943C275.937 164.056 278.712 166.457 282.209 168.137C285.804 169.863 289.918 170.726 294.553 170.726C299.163 170.726 303.266 169.863 306.861 168.137C308.667 167.27 310.281 166.211 311.705 164.961C315.078 166.873 318.451 168.312 321.823 169.272C325.228 170.241 328.633 170.726 332.038 170.726C338.682 170.726 344.08 168.905 348.229 165.264C352.38 161.623 354.454 156.928 354.454 151.183C354.454 147.66 353.426 144.657 351.368 142.173Z" fill="white"/>
<path d="M250.711 87.7321C250.579 87.2111 250.438 86.6921 250.285 86.1761C251.416 85.7941 252.186 85.4861 252.643 85.2891C252.66 85.2821 252.677 85.2741 252.695 85.2671L252.78 85.2291C252.79 85.2251 252.802 85.2201 252.813 85.2151L252.814 85.2141H252.815C252.827 85.2081 252.84 85.2031 252.853 85.1971L252.903 85.1751C252.93 85.1631 252.957 85.1501 252.985 85.1371C253.021 85.1211 253.058 85.1041 253.093 85.0871C253.123 85.0721 253.155 85.0571 253.181 85.0441C254.158 84.5551 254.846 83.6321 255.035 82.5561C255.224 81.4801 254.891 80.3771 254.139 79.5851C252.638 78.0061 250.785 75.9111 250.044 74.9131C249.779 57.5101 241.497 44.3161 226.044 36.6121C225.756 35.1651 224.998 33.7951 223.81 32.6161C222.966 31.0821 221.523 29.9501 219.802 29.5131L212.085 27.5511C210.344 27.1071 208.512 27.4241 207.028 28.3981C205.912 28.7671 204.944 29.3351 204.161 30.0711C203.054 29.9081 201.937 29.7631 200.813 29.6371C199.696 27.7211 197.68 26.2701 194.96 25.4681C193.875 24.6731 192.555 24.2321 191.206 24.2321H183.244C180.951 24.2321 178.879 25.4621 177.754 27.3961C176.947 28.0301 176.297 28.7631 175.813 29.5811C174.728 29.6971 173.647 29.8301 172.576 29.9811C171.15 28.7241 169.162 28.0181 166.793 27.9541C165.472 27.3361 163.984 27.1871 162.552 27.5501L154.835 29.5131C151.653 30.3221 149.64 33.4101 150.097 36.5911C134.616 44.2951 126.328 57.4841 126.064 74.9141C125.327 75.9091 123.501 77.9721 121.969 79.5851C121.216 80.3781 120.891 81.4831 121.08 82.5591C121.269 83.6361 121.963 84.5621 122.941 85.0511C122.968 85.0641 122.995 85.0781 123.022 85.0911C123.359 85.2501 124.542 85.7831 126.81 86.5001C126.68 86.9541 126.558 87.4111 126.445 87.8701C120.594 89.1881 116.205 94.4331 116.205 100.67C116.205 106.426 119.974 111.391 125.229 113.124C125.234 113.415 125.254 113.702 125.264 113.991H128.711H132.16H245.03H248.478H251.927C251.935 113.771 251.952 113.553 251.957 113.332C257.528 111.818 261.637 106.714 261.637 100.67C261.637 94.1821 256.904 88.7801 250.711 87.7321Z" fill="white"/>
<path d="M242.09 84.3147C241.974 84.3417 241.855 84.3687 241.737 84.3947C241.362 84.4807 240.971 84.5667 240.57 84.6527C240.539 84.6597 240.511 84.6657 240.48 84.6727C240.478 84.6737 240.475 84.6737 240.472 84.6747C240.327 84.7057 240.181 84.7367 240.032 84.7687C240.03 84.7687 240.028 84.7687 240.026 84.7697C240.007 84.7737 239.986 84.7777 239.967 84.7817C239.553 84.8687 239.124 84.9557 238.685 85.0427C238.669 85.0457 238.655 85.0487 238.64 85.0517C238.486 85.0827 238.336 85.1127 238.18 85.1437H238.178C237.665 85.2437 237.129 85.3437 236.58 85.4427C236.444 85.4677 236.314 85.4927 236.176 85.5167C235.502 85.6377 234.804 85.7577 234.077 85.8767C234.067 85.8787 234.058 85.8807 234.049 85.8817C234.041 85.8827 234.034 85.8847 234.026 85.8857C234.024 85.8857 234.023 85.8867 234.022 85.8867C233.795 85.9237 233.558 85.9597 233.326 85.9967C233.073 86.0377 232.825 86.0777 232.565 86.1177C232.44 86.1367 232.308 86.1557 232.182 86.1757C231.876 86.2217 231.568 86.2677 231.255 86.3137C230.937 86.3607 230.611 86.4057 230.284 86.4517C229.595 86.5487 228.885 86.6447 228.156 86.7397C227.983 86.7617 227.812 86.7837 227.637 86.8067H227.634C227.118 86.8717 226.592 86.9367 226.056 87.0007C226.041 87.0017 226.027 87.0037 226.011 87.0057C225.977 87.0097 225.941 87.0137 225.907 87.0177C224.155 87.2247 222.3 87.4217 220.333 87.6067C220.332 87.6067 220.33 87.6067 220.328 87.6067C220.323 87.6077 220.318 87.6077 220.314 87.6087C219.328 87.7007 218.312 87.7897 217.27 87.8757C217.11 87.8887 216.948 87.9017 216.787 87.9147C215.934 87.9827 215.061 88.0487 214.171 88.1117C213.838 88.1357 213.502 88.1587 213.163 88.1817C212.494 88.2277 211.814 88.2707 211.124 88.3127C211.121 88.3127 211.118 88.3137 211.115 88.3137C210.566 88.3467 210.012 88.3797 209.449 88.4107C209.05 88.4327 208.65 88.4547 208.245 88.4767C208.219 88.4777 208.195 88.4787 208.169 88.4807C208.167 88.4807 208.164 88.4807 208.161 88.4807C207.321 88.5247 206.462 88.5647 205.593 88.6027C205.591 88.6037 205.589 88.6037 205.586 88.6037C205.232 88.6187 204.875 88.6347 204.516 88.6497C203.556 88.6887 202.578 88.7247 201.583 88.7587C201.296 88.7677 201.007 88.7767 200.717 88.7857C200.704 88.7857 200.691 88.7867 200.678 88.7867C199.612 88.8197 198.529 88.8487 197.422 88.8737C197.209 88.8787 196.992 88.8827 196.778 88.8877C195.574 88.9127 194.351 88.9337 193.098 88.9497C192.972 88.9507 192.841 88.9517 192.714 88.9537C191.368 88.9687 190 88.9797 188.597 88.9827V88.9877C188.415 88.9877 188.243 88.9857 188.061 88.9847C187.879 88.9857 187.707 88.9877 187.525 88.9877V88.9827C187.523 88.9827 187.52 88.9827 187.518 88.9827C186.017 88.9787 184.549 88.9687 183.112 88.9507C183.078 88.9507 183.046 88.9497 183.012 88.9497C182.631 88.9447 182.27 88.9357 181.894 88.9307C181.003 88.9167 180.117 88.9027 179.248 88.8857C179.128 88.8827 179.002 88.8817 178.882 88.8787C178.515 88.8707 178.167 88.8587 177.804 88.8497C177.803 88.8497 177.802 88.8497 177.8 88.8497C177.504 88.8427 177.215 88.8337 176.921 88.8257C176.222 88.8067 175.509 88.7907 174.827 88.7687C174.568 88.7607 174.324 88.7497 174.067 88.7407C174.066 88.7407 174.065 88.7407 174.063 88.7407C173.013 88.7047 171.97 88.6667 170.96 88.6237C170.778 88.6157 170.604 88.6067 170.423 88.5977C170.416 88.5977 170.41 88.5977 170.403 88.5967C169.758 88.5687 169.134 88.5357 168.502 88.5047C168.09 88.4847 167.665 88.4667 167.262 88.4447C167.255 88.4447 167.248 88.4447 167.242 88.4447C167.165 88.4397 167.094 88.4347 167.017 88.4307C166.649 88.4107 166.3 88.3877 165.936 88.3667C165.204 88.3247 164.467 88.2837 163.76 88.2377C163.703 88.2337 163.651 88.2297 163.594 88.2257C163.594 88.2257 163.592 88.2257 163.591 88.2257C162.51 88.1557 161.453 88.0807 160.425 88.0027H160.423C160.417 88.0017 160.412 88.0017 160.406 88.0007C160.113 87.9787 159.839 87.9537 159.551 87.9307C158.773 87.8687 157.993 87.8077 157.246 87.7417C156.592 87.6837 155.95 87.6247 155.32 87.5647C155.259 87.5587 155.2 87.5527 155.139 87.5467H155.138C155.079 87.5407 155.021 87.5347 154.962 87.5287C154.606 87.4937 154.253 87.4587 153.904 87.4237C153.673 87.3997 153.447 87.3757 153.219 87.3517C153.069 87.3357 152.915 87.3207 152.765 87.3047C152.041 87.2267 151.334 87.1487 150.644 87.0677C150.481 87.0487 150.319 87.0297 150.156 87.0107C150.033 86.9967 149.909 86.9827 149.789 86.9677C149.326 86.9127 148.873 86.8557 148.425 86.7987C148.424 86.7987 148.422 86.7987 148.421 86.7977C148.404 86.7957 148.387 86.7937 148.37 86.7917C148.193 86.7687 148.018 86.7457 147.843 86.7237C147.84 86.7227 147.836 86.7227 147.833 86.7217C147.351 86.6587 146.892 86.5947 146.428 86.5307C146.229 86.5037 146.022 86.4767 145.826 86.4497C145.719 86.4347 145.613 86.4197 145.507 86.4037C145.231 86.3647 144.97 86.3247 144.701 86.2847C144.328 86.2297 143.945 86.1757 143.584 86.1197C143.583 86.1197 143.581 86.1197 143.579 86.1187C143.577 86.1187 143.576 86.1187 143.574 86.1177C143.571 86.1177 143.568 86.1177 143.565 86.1167C141.312 85.7687 139.316 85.4107 137.52 85.0547C136.638 84.8807 135.791 84.7057 135.013 84.5347C133.786 84.2627 132.685 83.9977 131.704 83.7437C128.395 82.8857 126.447 82.1587 125.569 81.7967C125.567 81.7967 125.566 81.7957 125.564 81.7947C125.558 81.7927 125.553 81.7907 125.547 81.7877C125.545 81.7867 125.544 81.7867 125.542 81.7857C125.432 81.7397 125.34 81.7007 125.265 81.6677C125.264 81.6677 125.262 81.6667 125.261 81.6657C125.253 81.6627 125.244 81.6587 125.237 81.6557C125.236 81.6557 125.235 81.6547 125.234 81.6547C125.169 81.6257 125.122 81.6037 125.085 81.5877C125.083 81.5867 125.079 81.5847 125.077 81.5837C125.075 81.5827 125.068 81.5797 125.066 81.5787C125.061 81.5767 125.062 81.5767 125.058 81.5747C125.056 81.5737 125.056 81.5737 125.055 81.5737C125.036 81.5647 125.027 81.5607 125.021 81.5577C125.019 81.5567 125.008 81.5507 125.008 81.5507L125.005 81.5497C125.005 81.5497 125.036 81.5167 125.08 81.4707C125.089 81.4607 125.092 81.4567 125.103 81.4457C125.156 81.3887 125.228 81.3127 125.323 81.2117C125.327 81.2067 125.33 81.2047 125.334 81.1997C125.43 81.0967 125.544 80.9757 125.672 80.8367C125.694 80.8127 125.716 80.7887 125.738 80.7647C125.852 80.6427 125.974 80.5097 126.104 80.3677C126.125 80.3447 126.141 80.3277 126.162 80.3047C126.169 80.2977 126.177 80.2877 126.184 80.2807C126.363 80.0847 126.554 79.8747 126.752 79.6537C126.787 79.6147 126.821 79.5777 126.857 79.5377C126.916 79.4717 126.973 79.4077 127.033 79.3407C127.187 79.1687 127.343 78.9927 127.499 78.8147C127.654 78.6367 127.81 78.4577 127.964 78.2787C128.117 78.0997 128.268 77.9217 128.414 77.7467C128.561 77.5717 128.702 77.3997 128.836 77.2327C128.97 77.0657 129.096 76.9037 129.213 76.7507C129.251 76.7007 129.281 76.6567 129.317 76.6087C129.502 76.3597 129.664 76.1287 129.778 75.9387C129.915 75.7117 129.992 75.5337 129.992 75.4237C129.992 75.2627 130 75.1067 130.001 74.9457C130.333 75.0407 130.689 75.1387 131.058 75.2367C131.132 75.2567 131.207 75.2777 131.283 75.2977C131.668 75.3997 132.068 75.5027 132.493 75.6087C132.502 75.6107 132.512 75.6137 132.521 75.6157C132.801 75.6857 133.105 75.7567 133.402 75.8277C133.568 75.8667 133.723 75.9057 133.894 75.9457C133.932 75.9547 133.968 75.9627 134.006 75.9717C134.506 76.0877 135.028 76.2047 135.575 76.3217C135.581 76.3237 135.587 76.3247 135.592 76.3257C136.713 76.5667 137.932 76.8107 139.258 77.0547C140.06 77.2017 140.913 77.3487 141.792 77.4947C141.866 77.5067 141.943 77.5187 142.017 77.5307C142.53 77.6147 143.039 77.6997 143.579 77.7827V76.9857V75.8407V75.7747V74.7197V72.9337V72.4717C143.579 72.4717 144.048 70.0327 146.29 70.0327H146.48H150.762H152.321H154.376C155.971 70.0327 157.276 71.3377 157.276 72.9337V74.7197V77.4157V78.6167V79.4077C157.856 79.4587 158.465 79.5057 159.063 79.5537C159.447 79.5847 159.82 79.6177 160.212 79.6477C160.333 79.6577 160.453 79.6667 160.574 79.6757C161.603 79.7537 162.655 79.8287 163.737 79.8987L163.738 79.8997C163.74 79.8997 163.741 79.8997 163.743 79.8997C163.748 79.8997 163.753 79.8997 163.758 79.9007C163.76 79.9007 163.762 79.9007 163.764 79.9007C164.787 79.9667 165.841 80.0287 166.912 80.0877C166.913 80.0877 166.914 80.0877 166.915 80.0877C166.919 80.0877 166.921 80.0877 166.924 80.0877C167.114 80.0987 167.303 80.1087 167.495 80.1197C167.498 80.1197 167.501 80.1197 167.504 80.1197C168.609 80.1787 169.735 80.2337 170.891 80.2837H170.893C170.895 80.2837 170.897 80.2837 170.899 80.2837C170.934 80.2857 170.972 80.2867 171.007 80.2877C171.014 80.2887 171.021 80.2887 171.028 80.2887C171.03 80.2887 171.032 80.2887 171.035 80.2887C172.119 80.3357 173.232 80.3767 174.362 80.4147C174.365 80.4147 174.368 80.4147 174.371 80.4147C174.512 80.4197 174.644 80.4257 174.786 80.4307C174.904 80.4337 175.031 80.4367 175.151 80.4407C175.152 80.4407 175.154 80.4407 175.156 80.4407C175.669 80.4567 176.203 80.4687 176.725 80.4827C177.422 80.5027 178.103 80.5247 178.816 80.5397C178.856 80.5407 178.897 80.5417 178.937 80.5427C180.129 80.5687 181.353 80.5887 182.593 80.6047C182.597 80.6047 182.601 80.6047 182.605 80.6047C182.768 80.6067 182.921 80.6107 183.084 80.6127C183.235 80.6147 183.395 80.6147 183.547 80.6167C183.551 80.6167 183.555 80.6167 183.559 80.6167C184.858 80.6307 186.173 80.6417 187.525 80.6447V80.6497C187.707 80.6497 187.879 80.6477 188.061 80.6477C188.243 80.6477 188.415 80.6497 188.597 80.6497V80.6447C190.037 80.6417 191.436 80.6297 192.816 80.6137C192.82 80.6137 192.824 80.6137 192.829 80.6137C193.117 80.6097 193.407 80.6067 193.693 80.6027C193.697 80.6027 193.7 80.6027 193.704 80.6027C195.053 80.5837 196.379 80.5607 197.672 80.5307C197.817 80.5277 197.958 80.5237 198.102 80.5197C199.052 80.4967 199.972 80.4687 200.891 80.4397C201.157 80.4317 201.435 80.4257 201.699 80.4167C201.715 80.4157 201.731 80.4157 201.747 80.4147C201.917 80.4087 202.089 80.4037 202.257 80.3977C202.26 80.3977 202.262 80.3977 202.264 80.3977C203.526 80.3537 204.759 80.3047 205.963 80.2497C205.965 80.2497 205.968 80.2497 205.971 80.2497C206.106 80.2437 206.238 80.2367 206.373 80.2307C206.377 80.2307 206.382 80.2307 206.387 80.2297C208.887 80.1137 211.266 79.9777 213.521 79.8217C213.594 79.8167 213.665 79.8117 213.738 79.8067C215.412 79.6907 216.999 79.5617 218.542 79.4277C219.139 79.3757 219.75 79.3257 220.328 79.2717V78.4807V77.7827V77.2787V74.7197V72.9337V72.4717C220.328 72.4717 220.797 70.0327 223.039 70.0327H223.229H225.284H227.512H231.125C231.524 70.0327 231.905 70.1147 232.251 70.2617C232.598 70.4087 232.911 70.6217 233.174 70.8847C233.699 71.4107 234.026 72.1357 234.026 72.9337V74.7197V75.5367V75.8407V76.7497V77.5477L234.027 77.5467C234.498 77.4697 234.941 77.3927 235.389 77.3147C235.528 77.2907 235.675 77.2667 235.812 77.2427C237.144 77.0077 238.383 76.7717 239.521 76.5377C240.063 76.4267 240.583 76.3157 241.083 76.2047C241.086 76.2037 241.091 76.2037 241.095 76.2027L241.096 76.2017H241.097C241.097 76.2017 241.099 76.2017 241.1 76.2017C241.225 76.1737 241.337 76.1467 241.459 76.1197C241.801 76.0427 242.142 75.9667 242.463 75.8907L242.465 75.8897C242.486 75.8847 242.509 75.8797 242.53 75.8757C242.543 75.8727 242.554 75.8697 242.567 75.8657C242.62 75.8537 242.668 75.8417 242.72 75.8287C243.103 75.7377 243.477 75.6467 243.831 75.5587L243.832 75.5577C243.843 75.5557 243.853 75.5527 243.863 75.5497C243.875 75.5467 243.886 75.5447 243.898 75.5417C244.251 75.4517 244.587 75.3647 244.911 75.2777C244.953 75.2667 245.001 75.2547 245.043 75.2437C245.082 75.2337 245.115 75.2237 245.154 75.2127H245.156C245.489 75.1227 245.812 75.0337 246.114 74.9477C246.116 74.9477 246.118 74.9467 246.12 74.9457C246.122 75.1067 246.129 75.2627 246.129 75.4237C246.129 75.5337 246.207 75.7117 246.344 75.9387C246.458 76.1287 246.62 76.3597 246.805 76.6087C246.841 76.6567 246.871 76.7007 246.909 76.7507C247.026 76.9037 247.152 77.0657 247.286 77.2327C247.42 77.3997 247.561 77.5717 247.708 77.7467C247.854 77.9217 248.005 78.0997 248.158 78.2787C248.312 78.4577 248.467 78.6367 248.623 78.8147C248.706 78.9097 248.788 79.0007 248.87 79.0937C248.943 79.1767 249.016 79.2597 249.088 79.3407C249.369 79.6557 249.633 79.9457 249.882 80.2177C249.906 80.2447 249.936 80.2787 249.96 80.3047C250.083 80.4397 250.199 80.5647 250.307 80.6827C250.33 80.7067 250.346 80.7247 250.368 80.7477C250.432 80.8167 250.486 80.8747 250.543 80.9367C250.607 81.0057 250.665 81.0677 250.719 81.1257C250.767 81.1767 250.807 81.2207 250.847 81.2627C250.905 81.3247 250.948 81.3707 250.988 81.4127C251.016 81.4417 251.034 81.4617 251.052 81.4807C251.093 81.5247 251.117 81.5497 251.117 81.5497C251.117 81.5497 251.109 81.5537 251.107 81.5547H251.105C251.101 81.5577 251.096 81.5597 251.091 81.5617C251.085 81.5647 251.082 81.5657 251.071 81.5717C251.069 81.5727 251.07 81.5727 251.068 81.5727C251.065 81.5747 251.066 81.5737 251.064 81.5747C251.062 81.5757 251.06 81.5767 251.058 81.5777C251.054 81.5797 251.046 81.5827 251.042 81.5847C251.04 81.5857 251.034 81.5887 251.031 81.5897C251 81.6047 250.963 81.6217 250.913 81.6437C250.912 81.6437 250.911 81.6447 250.91 81.6447C250.907 81.6457 250.907 81.6467 250.904 81.6477C250.899 81.6497 250.896 81.6507 250.89 81.6537C250.88 81.6577 250.864 81.6647 250.853 81.6697C250.851 81.6707 250.847 81.6717 250.845 81.6727C250.799 81.6937 250.743 81.7177 250.684 81.7427C250.671 81.7477 250.662 81.7517 250.649 81.7567C250.648 81.7577 250.647 81.7577 250.645 81.7587C250.615 81.7717 250.583 81.7847 250.549 81.7987C250.547 81.7997 250.544 81.8007 250.543 81.8007C250.473 81.8297 250.392 81.8627 250.308 81.8957C250.293 81.9017 250.282 81.9067 250.266 81.9127C250.264 81.9137 250.263 81.9137 250.261 81.9147C250.223 81.9297 250.185 81.9447 250.144 81.9607C250.141 81.9617 250.138 81.9637 250.135 81.9647C250.134 81.9647 250.131 81.9657 250.13 81.9667C250.029 82.0057 249.916 82.0487 249.798 82.0927C249.783 82.0987 249.771 82.1027 249.756 82.1087C249.753 82.1097 249.751 82.1107 249.749 82.1117C249.706 82.1277 249.667 82.1417 249.622 82.1587C249.617 82.1607 249.611 82.1627 249.605 82.1647C249.604 82.1657 249.602 82.1657 249.601 82.1667C249.451 82.2217 249.285 82.2807 249.112 82.3417C249.11 82.3427 249.108 82.3427 249.107 82.3437C249.101 82.3457 249.096 82.3467 249.091 82.3487C249.089 82.3497 249.087 82.3507 249.085 82.3507C249.049 82.3637 249.02 82.3747 248.983 82.3877C248.974 82.3907 248.963 82.3937 248.955 82.3967C248.954 82.3977 248.952 82.3977 248.951 82.3977C248.736 82.4727 248.502 82.5517 248.252 82.6327C248.25 82.6337 248.247 82.6347 248.245 82.6357C248.227 82.6417 248.214 82.6467 248.196 82.6517C248.19 82.6537 248.183 82.6567 248.176 82.6587C248.16 82.6637 248.141 82.6697 248.126 82.6747C247.87 82.7577 247.596 82.8437 247.304 82.9337C247.293 82.9367 247.28 82.9407 247.268 82.9447C247.185 82.9697 247.096 82.9957 247.009 83.0217C246.772 83.0927 246.529 83.1647 246.27 83.2397C246.231 83.2507 246.188 83.2627 246.147 83.2747C246.065 83.2977 245.984 83.3207 245.9 83.3437C245.735 83.3907 245.561 83.4377 245.388 83.4847C245.239 83.5257 245.103 83.5647 244.948 83.6067C244.895 83.6207 244.837 83.6347 244.784 83.6497C244.783 83.6497 244.781 83.6497 244.78 83.6507C244.664 83.6807 244.534 83.7127 244.415 83.7437C244.152 83.8117 243.893 83.8797 243.613 83.9497C243.514 83.9747 243.411 83.9987 243.311 84.0237C243.309 84.0237 243.307 84.0247 243.306 84.0247C242.928 84.1177 242.537 84.2107 242.129 84.3057H242.127C242.114 84.3087 242.103 84.3117 242.09 84.3147Z" fill="#FFC628"/>
<path d="M130.163 71.2869C130.167 71.2439 130.172 71.2019 130.176 71.1579C130.192 70.9639 130.214 70.7749 130.232 70.5829C130.237 70.5369 130.241 70.4909 130.246 70.4449C130.276 70.1429 130.302 69.8369 130.337 69.5389C130.344 69.4759 130.355 69.4149 130.362 69.3509C130.385 69.1659 130.413 68.9849 130.437 68.8019C130.446 68.7379 130.454 68.6749 130.463 68.6119C130.499 68.3559 130.531 68.0959 130.57 67.8439C130.583 67.7619 130.6 67.6819 130.613 67.5999C130.64 67.4329 130.671 67.2689 130.7 67.1029C130.714 67.0219 130.728 66.9409 130.743 66.8609C130.783 66.6409 130.819 66.4179 130.862 66.2009C130.881 66.1009 130.905 66.0039 130.926 65.9039C130.956 65.7579 130.988 65.6139 131.02 65.4689C131.041 65.3709 131.061 65.2729 131.083 65.1769C131.125 64.9879 131.164 64.7959 131.209 64.6099C131.237 64.4909 131.27 64.3769 131.299 64.2589C131.33 64.1359 131.362 64.0139 131.394 63.8919C131.423 63.7799 131.451 63.6669 131.481 63.5549C131.524 63.3929 131.565 63.2289 131.611 63.0689C131.649 62.9319 131.692 62.8009 131.732 62.6649C131.761 62.5659 131.792 62.4669 131.822 62.3679C131.86 62.2419 131.896 62.1149 131.936 61.9899C131.979 61.8529 132.02 61.7139 132.065 61.5779C132.115 61.4229 132.171 61.2739 132.223 61.1219C132.249 61.0459 132.275 60.9709 132.301 60.8949C132.35 60.7559 132.396 60.6159 132.446 60.4779C132.487 60.3639 132.527 60.2489 132.57 60.1359C132.635 59.9599 132.706 59.7899 132.773 59.6179C132.792 59.5699 132.811 59.5219 132.83 59.4739C132.889 59.3239 132.946 59.1709 133.007 59.0219C133.046 58.9279 133.085 58.8339 133.124 58.7409C133.21 58.5369 133.301 58.3379 133.39 58.1379C133.395 58.1259 133.4 58.1139 133.406 58.1019C133.477 57.9409 133.546 57.7759 133.62 57.6169C133.655 57.5419 133.69 57.4679 133.725 57.3939C133.824 57.1849 133.927 56.9819 134.028 56.7769C134.058 56.7179 134.086 56.6569 134.116 56.5989C134.172 56.4879 134.224 56.3729 134.281 56.2629C134.31 56.2059 134.342 56.1509 134.372 56.0939C134.477 55.8919 134.587 55.6949 134.696 55.4969C134.794 55.3179 134.889 55.1349 134.99 54.9589C135.013 54.9179 135.038 54.8799 135.062 54.8389C135.101 54.7719 135.142 54.7069 135.181 54.6399C135.255 54.5129 135.331 54.3879 135.406 54.2629C135.519 54.0759 135.63 53.8869 135.746 53.7029C135.761 53.6779 135.778 53.6549 135.794 53.6299C135.876 53.4999 135.961 53.3749 136.044 53.2469C136.082 53.1889 136.119 53.1309 136.157 53.0739C136.286 52.8799 136.413 52.6849 136.544 52.4939C136.551 52.4839 136.559 52.4739 136.566 52.4639C136.672 52.3099 136.782 52.1599 136.891 52.0079C136.91 51.9819 136.929 51.9549 136.948 51.9289C137.089 51.7319 137.231 51.5349 137.376 51.3419C137.379 51.3379 137.382 51.3339 137.385 51.3299C137.508 51.1669 137.634 51.0069 137.76 50.8469C137.764 50.8409 137.769 50.8349 137.774 50.8279C137.923 50.6379 138.071 50.4479 138.223 50.2619C138.237 50.2449 138.252 50.2279 138.265 50.2109C138.387 50.0619 138.512 49.9159 138.636 49.7699C138.645 49.7589 138.654 49.7479 138.663 49.7379C138.81 49.5649 138.956 49.3919 139.106 49.2219C139.132 49.1929 139.158 49.1649 139.184 49.1359C139.298 49.0069 139.414 48.8809 139.53 48.7539C139.553 48.7289 139.575 48.7039 139.598 48.6789C139.738 48.5259 139.879 48.3739 140.021 48.2249C140.06 48.1839 140.1 48.1439 140.14 48.1029C140.245 47.9929 140.351 47.8849 140.458 47.7759C140.494 47.7389 140.53 47.7019 140.566 47.6649C140.699 47.5319 140.832 47.3989 140.967 47.2679C141.021 47.2149 141.076 47.1639 141.131 47.1109C141.226 47.0189 141.321 46.9279 141.417 46.8379C141.467 46.7909 141.516 46.7419 141.566 46.6959C141.69 46.5799 141.815 46.4639 141.941 46.3499C142.013 46.2849 142.086 46.2219 142.157 46.1579C142.24 46.0839 142.322 46.0109 142.405 45.9379C142.469 45.8819 142.531 45.8239 142.595 45.7679C142.711 45.6679 142.827 45.5689 142.944 45.4709C143.038 45.3919 143.132 45.3139 143.226 45.2359C143.29 45.1829 143.354 45.1299 143.418 45.0769C143.496 45.0129 143.572 44.9469 143.651 44.8839C143.757 44.7979 143.866 44.7139 143.973 44.6279C144.101 44.5269 144.231 44.4279 144.36 44.3279C144.392 44.3029 144.424 44.2779 144.456 44.2529C144.549 44.1819 144.64 44.1089 144.733 44.0389C144.83 43.9659 144.929 43.8949 145.026 43.8229C145.188 43.7029 145.352 43.5849 145.516 43.4669C145.61 43.3989 145.703 43.3289 145.799 43.2619C145.814 43.2509 145.829 43.2389 145.845 43.2279C145.93 43.1679 146.017 43.1119 146.103 43.0529C146.267 42.9389 146.431 42.8279 146.596 42.7169C146.719 42.6339 146.841 42.5489 146.964 42.4679C147.042 42.4169 147.122 42.3689 147.2 42.3179C147.25 42.2849 147.301 42.2529 147.352 42.2209C147.467 42.1469 147.583 42.0729 147.698 41.9999C147.837 41.9119 147.975 41.8239 148.115 41.7379C148.18 41.6969 148.247 41.6589 148.313 41.6189C148.401 41.5649 148.49 41.5129 148.579 41.4589C148.659 41.4109 148.739 41.3629 148.82 41.3159C148.974 41.2239 149.129 41.1319 149.284 41.0429C149.338 41.0119 149.392 40.9829 149.445 40.9519C149.557 40.8879 149.67 40.8259 149.783 40.7619C149.84 40.7309 149.896 40.6979 149.953 40.6669C150.125 40.5709 150.297 40.4759 150.47 40.3829C150.511 40.3609 150.552 40.3409 150.592 40.3189C150.725 40.2479 150.858 40.1779 150.99 40.1089C151.028 40.0889 151.066 40.0689 151.103 40.0489C151.292 39.9509 151.48 39.8539 151.669 39.7579C151.697 39.7449 151.725 39.7309 151.752 39.7179C151.902 39.6419 152.053 39.5669 152.204 39.4929C152.224 39.4829 152.245 39.4729 152.265 39.4629C152.365 39.4139 152.465 39.3619 152.566 39.3139L152.567 39.3179L153.43 42.7089L156.402 54.3989C156.846 53.6899 157.36 53.0279 157.95 52.4389L157.916 52.3079C157.686 51.4279 156.308 46.1639 155.187 41.8819C154.86 40.6329 154.555 39.4669 154.307 38.5189V38.5169C154.137 37.8689 153.994 37.3219 153.889 36.9189C153.875 36.8689 153.87 36.8249 153.859 36.7769C153.135 33.7019 155.536 32.9579 155.536 32.9579C155.536 32.9579 156.517 32.6839 159.434 31.9209C159.201 31.9819 158.995 32.0579 158.788 32.1339L163.614 30.9059C163.833 30.8509 164.052 30.8279 164.269 30.8239C164.277 30.8239 164.286 30.8209 164.295 30.8209C164.305 30.8209 164.315 30.8169 164.325 30.8169C164.437 30.8169 164.547 30.8319 164.657 30.8449C164.698 30.8499 164.74 30.8489 164.781 30.8549C164.825 30.8619 164.868 30.8749 164.912 30.8849C164.921 30.8869 164.931 30.8899 164.941 30.8919C165.058 30.9179 165.174 30.9449 165.287 30.9839C165.327 30.9979 165.364 31.0189 165.403 31.0349C165.525 31.0839 165.644 31.1379 165.757 31.2019C165.811 31.2329 165.861 31.2689 165.913 31.3029C165.974 31.3429 166.038 31.3769 166.095 31.4209C166.127 31.4449 166.154 31.4759 166.185 31.5009C166.236 31.5439 166.284 31.5879 166.332 31.6339C166.412 31.7109 166.486 31.7919 166.558 31.8779C166.6 31.9279 166.642 31.9779 166.68 32.0309C166.75 32.1289 166.811 32.2319 166.869 32.3379C166.897 32.3889 166.928 32.4369 166.953 32.4889C166.98 32.5469 167.001 32.6089 167.024 32.6689C167.022 32.6689 167.021 32.6689 167.019 32.6699C167.062 32.7789 167.111 32.8859 167.14 33.0019L167.491 34.3829L168.335 37.7009L171.274 49.2569H173.32L170.18 36.9089L169.439 33.9979C169.59 33.9699 169.741 33.9419 169.891 33.9149C170.116 33.8739 170.339 33.8359 170.562 33.7979C170.727 33.7699 170.892 33.7409 171.056 33.7139C171.13 33.7009 171.204 33.6889 171.278 33.6769C171.426 33.6529 171.573 33.6299 171.721 33.6069C171.879 33.5819 172.039 33.5559 172.197 33.5319C172.438 33.4949 172.675 33.4609 172.913 33.4269C173.045 33.4079 173.179 33.3879 173.31 33.3699C173.665 33.3199 174.017 33.2729 174.365 33.2289C174.377 33.2279 174.389 33.2259 174.401 33.2239C174.591 33.1999 174.777 33.1779 174.965 33.1559C174.965 33.1559 174.967 33.1559 174.968 33.1549C175.135 33.1349 175.303 33.1139 175.468 33.0949C175.592 33.0809 175.713 33.0679 175.837 33.0549C176.063 33.0299 176.29 33.0039 176.513 32.9809C176.654 32.9669 176.792 32.9539 176.931 32.9399C177.129 32.9199 177.327 32.8999 177.521 32.8819C177.672 32.8679 177.82 32.8559 177.968 32.8429C178.1 32.8309 178.234 32.8189 178.363 32.8079C178.378 32.8059 178.393 32.8049 178.408 32.8039V36.2409V49.2569H180.345C180.345 49.2569 180.309 41.1809 180.283 35.6369C180.278 34.5129 180.274 33.4959 180.27 32.6679C180.267 32.0609 180.264 31.5509 180.262 31.1869C180.262 31.0789 180.271 30.9829 180.276 30.8809C180.296 30.4609 180.358 30.0949 180.455 29.7809C181.05 27.8489 182.842 27.7579 182.842 27.7579C182.842 27.7579 182.884 27.7569 182.947 27.7559C183.061 27.7419 183.173 27.7209 183.291 27.7209H186.876H191.187C191.392 27.7209 191.591 27.7439 191.784 27.7849C191.81 27.7899 191.834 27.8019 191.861 27.8089C192.016 27.8459 192.169 27.8889 192.313 27.9499C192.324 27.9549 192.334 27.9619 192.344 27.9669C192.354 27.9709 192.362 27.9769 192.371 27.9809C192.694 28.1269 192.988 28.3259 193.236 28.5729C193.254 28.5919 193.268 28.6149 193.285 28.6329C193.779 29.1539 194.088 29.8519 194.088 30.6219V30.7879V32.2379V32.5729V35.9899V49.2569H196.071V35.4819V32.6829C196.119 32.6859 196.169 32.6889 196.218 32.6919C196.375 32.7029 196.533 32.7139 196.693 32.7249C196.842 32.7359 196.994 32.7479 197.146 32.7589C197.308 32.7719 197.471 32.7849 197.636 32.7979C197.793 32.8109 197.951 32.8249 198.11 32.8389C198.169 32.8439 198.229 32.8489 198.289 32.8549C198.4 32.8649 198.51 32.8739 198.623 32.8849C198.781 32.8989 198.941 32.9149 199.101 32.9309C199.278 32.9479 199.453 32.9649 199.633 32.9839C199.737 32.9949 199.844 33.0069 199.949 33.0179C199.96 33.0189 199.971 33.0199 199.981 33.0219C200.034 33.0269 200.087 33.0329 200.139 33.0389C200.317 33.0579 200.493 33.0769 200.674 33.0979C200.857 33.1189 201.044 33.1419 201.23 33.1649C201.562 33.2049 201.898 33.2479 202.238 33.2929C202.422 33.3179 202.604 33.3409 202.79 33.3669C202.982 33.3929 203.178 33.4229 203.372 33.4509C203.549 33.4769 203.725 33.5019 203.903 33.5289C204.1 33.5589 204.3 33.5909 204.499 33.6229C204.678 33.6509 204.857 33.6789 205.038 33.7089C205.12 33.7229 205.204 33.7379 205.287 33.7519V33.7539L204.439 37.0869L201.344 49.2569H203.39L204.873 43.4229C205.386 41.3449 205.958 39.0289 206.438 37.0839C206.729 35.9009 206.987 34.8589 207.176 34.0919V34.0899C207.231 33.8699 207.281 33.6679 207.323 33.4959C207.43 33.0619 207.571 32.7009 207.731 32.3929C207.909 32.0529 208.112 31.7849 208.327 31.5719C209.359 30.5459 210.662 30.8029 210.662 30.8029C210.662 30.8029 211.655 31.0309 214.583 31.7529C214.335 31.6919 214.105 31.6579 213.876 31.6249L218.702 32.8519C218.703 32.8529 218.704 32.8529 218.704 32.8529C218.925 32.9089 219.129 32.9949 219.322 33.0959C219.383 33.1279 219.437 33.1669 219.494 33.2019C219.624 33.2819 219.747 33.3689 219.862 33.4669C219.917 33.5149 219.97 33.5639 220.022 33.6159C220.129 33.7229 220.225 33.8379 220.314 33.9599C220.352 34.0109 220.392 34.0589 220.426 34.1129C220.54 34.2919 220.639 34.4789 220.712 34.6789C220.881 35.1439 220.92 35.6549 220.83 36.1689C220.817 36.2389 220.816 36.3079 220.798 36.3779L220.406 37.9199L220.405 37.9239L219.658 40.8619L216.074 54.9569C216.651 56.0159 217.043 57.1839 217.24 58.4159L221.391 42.0919L222.251 38.7129V38.7099C222.28 38.7229 222.31 38.7359 222.339 38.7489C222.448 38.7979 222.556 38.8489 222.665 38.8989C222.868 38.9919 223.07 39.0869 223.272 39.1819C223.476 39.2789 223.679 39.3769 223.883 39.4759C224.082 39.5739 224.281 39.6719 224.48 39.7729C224.684 39.8759 224.887 39.9809 225.09 40.0869C225.286 40.1889 225.481 40.2909 225.675 40.3959C225.881 40.5069 226.085 40.6209 226.29 40.7349C226.479 40.8409 226.669 40.9459 226.857 41.0539C227.066 41.1749 227.273 41.2989 227.48 41.4229C227.661 41.5299 227.843 41.6369 228.022 41.7469C228.243 41.8829 228.461 42.0239 228.68 42.1639C228.843 42.2679 229.008 42.3699 229.169 42.4759C229.453 42.6629 229.733 42.8559 230.013 43.0489C230.191 43.1719 230.368 43.2969 230.545 43.4229C230.825 43.6229 231.105 43.8249 231.381 44.0319C231.53 44.1449 231.677 44.2629 231.825 44.3769C232.038 44.5429 232.252 44.7069 232.463 44.8769C232.62 45.0039 232.775 45.1359 232.93 45.2659C233.127 45.4299 233.324 45.5929 233.518 45.7609C233.676 45.8989 233.832 46.0399 233.989 46.1799C234.176 46.3479 234.362 46.5149 234.546 46.6869C234.702 46.8319 234.855 46.9799 235.008 47.1279C235.189 47.3019 235.368 47.4769 235.546 47.6559C235.697 47.8079 235.846 47.9609 235.995 48.1159C236.169 48.2979 236.342 48.4819 236.514 48.6679C236.66 48.8259 236.804 48.9859 236.947 49.1469C237.116 49.3369 237.282 49.5289 237.447 49.7229C237.587 49.8879 237.727 50.0539 237.865 50.2219C238.029 50.4219 238.189 50.6249 238.349 50.8299C238.481 50.9979 238.613 51.1659 238.742 51.3379C238.904 51.5519 239.061 51.7709 239.218 51.9899C239.34 52.1599 239.463 52.3279 239.582 52.5009C239.745 52.7369 239.903 52.9799 240.061 53.2219C240.167 53.3839 240.275 53.5429 240.379 53.7079C240.563 53.9999 240.741 54.2999 240.918 54.6009C240.989 54.7219 241.064 54.8399 241.134 54.9629C241.377 55.3869 241.612 55.8199 241.84 56.2609C241.903 56.3829 241.961 56.5089 242.022 56.6329C242.185 56.9569 242.347 57.2819 242.501 57.6139C242.582 57.7909 242.659 57.9729 242.738 58.1519C242.865 58.4389 242.993 58.7259 243.114 59.0199C243.196 59.2189 243.273 59.4229 243.351 59.6249C243.422 59.8049 243.495 59.9819 243.563 60.1639C243.572 60.1869 243.581 60.2089 243.59 60.2309C243.62 60.3119 243.646 60.3959 243.676 60.4769C243.753 60.6909 243.826 60.9079 243.9 61.1249C243.95 61.2699 244.002 61.4119 244.05 61.5579C244.062 61.5949 244.076 61.6299 244.088 61.6659C244.122 61.7719 244.152 61.8819 244.186 61.9879C244.256 62.2129 244.324 62.4399 244.391 62.6679C244.422 62.7749 244.456 62.8799 244.487 62.9879C244.502 63.0419 244.52 63.0949 244.536 63.1489C244.573 63.2829 244.605 63.4209 244.641 63.5549C244.703 63.7879 244.764 64.0239 244.823 64.2599C244.834 64.3039 244.846 64.3469 244.856 64.3909C244.881 64.4889 244.908 64.5839 244.932 64.6829C244.97 64.8449 245.002 65.0129 245.039 65.1769C245.093 65.4179 245.146 65.6599 245.196 65.9039C245.201 65.9289 245.207 65.9529 245.212 65.9779C245.232 66.0739 245.255 66.1669 245.274 66.2629C245.312 66.4599 245.343 66.6639 245.379 66.8629C245.424 67.1069 245.468 67.3509 245.508 67.5979C245.525 67.6979 245.545 67.7949 245.561 67.8959C245.598 68.1319 245.626 68.3759 245.659 68.6149C245.683 68.7889 245.708 68.9619 245.73 69.1369C245.739 69.2089 245.751 69.2789 245.759 69.3509C245.769 69.4279 245.782 69.5019 245.791 69.5799C245.824 69.8649 245.848 70.1589 245.876 70.4489C245.895 70.6359 245.914 70.8229 245.932 71.0099C245.937 71.0589 245.942 71.1079 245.946 71.1569C245.951 71.2099 245.957 71.2619 245.962 71.3149C245.991 71.6759 246.009 72.0469 246.03 72.4149C246.041 72.6009 246.055 72.7839 246.064 72.9709C245.901 72.9759 245.737 72.9939 245.577 73.0389C244.656 73.3019 243.678 73.5569 242.656 73.8049C241.859 73.9989 241.034 74.1889 240.178 74.3739C238.797 74.6719 237.338 74.9559 235.812 75.2289V72.9329C235.812 70.3489 233.71 68.2459 231.125 68.2459H223.229C222.465 68.2459 221.754 68.4469 221.116 68.7729C219.596 69.5479 218.542 71.1129 218.542 72.9329V77.4369C213.235 77.9009 207.554 78.2379 201.53 78.4379C197.37 78.5759 193.054 78.6519 188.593 78.6619C188.549 78.6619 188.506 78.6639 188.463 78.6669L188.33 78.6659L188.063 78.6649L187.792 78.6659L187.659 78.6669C187.616 78.6639 187.573 78.6619 187.529 78.6619C183.602 78.6529 179.789 78.5919 176.092 78.4839C170.072 78.3079 164.382 77.9989 159.063 77.5639V72.9329C159.063 72.8539 159.044 72.7809 159.04 72.7019C158.954 70.9819 157.943 69.5149 156.488 68.7729C156.231 68.6409 155.962 68.5359 155.68 68.4539C155.263 68.3319 154.831 68.2459 154.376 68.2459H146.48C143.895 68.2459 141.792 70.3489 141.792 72.9329V75.4859C140.064 75.1959 138.421 74.8899 136.866 74.5679C135.681 74.3229 134.545 74.0699 133.466 73.8069C132.443 73.5589 131.469 73.3029 130.545 73.0389C130.385 72.9939 130.221 72.9759 130.058 72.9709C130.066 72.8069 130.079 72.6479 130.088 72.4849C130.089 72.4579 130.091 72.4319 130.093 72.4049C130.115 72.0309 130.133 71.6539 130.163 71.2869Z" fill="#FFC628"/>
<g style="mix-blend-mode:multiply">
<mask id="mask2_6_95" style="mask-type:luminance" maskUnits="userSpaceOnUse" x="120" y="90" width="10" height="20">
<g style="mix-blend-mode:multiply">
<path d="M120.229 109.662H129.792V90.513H120.229V109.662Z" fill="white"/>
</g>
</mask>
<g mask="url(#mask2_6_95)">
<path d="M122.412 94.0114C122.405 94.0194 122.399 94.0294 122.392 94.0374C122.206 94.2664 122.028 94.5024 121.863 94.7474C121.823 94.8054 121.791 94.8694 121.753 94.9284C121.624 95.1274 121.497 95.3284 121.384 95.5374C121.344 95.6094 121.313 95.6874 121.276 95.7604C121.173 95.9624 121.07 96.1644 120.981 96.3744C120.936 96.4794 120.903 96.5904 120.863 96.6974C120.792 96.8824 120.718 97.0644 120.659 97.2534C120.609 97.4144 120.574 97.5814 120.533 97.7464C120.497 97.8884 120.453 98.0274 120.424 98.1714C120.382 98.3764 120.357 98.5864 120.328 98.7954C120.313 98.9054 120.29 99.0124 120.278 99.1234C120.246 99.4454 120.229 99.7724 120.229 100.103C120.229 100.427 120.246 100.747 120.277 101.063C120.289 101.176 120.311 101.284 120.326 101.396C120.353 101.597 120.378 101.798 120.418 101.995C120.445 102.131 120.484 102.262 120.516 102.396C120.557 102.562 120.595 102.73 120.644 102.893C120.689 103.041 120.745 103.183 120.797 103.328C120.848 103.47 120.895 103.613 120.952 103.752C121.016 103.907 121.09 104.057 121.162 104.208C121.219 104.328 121.273 104.45 121.335 104.568C121.42 104.729 121.514 104.883 121.607 105.038C121.667 105.138 121.725 105.239 121.789 105.336C121.896 105.5 122.011 105.657 122.128 105.814C122.187 105.894 122.245 105.975 122.306 106.053C122.437 106.218 122.576 106.375 122.717 106.531C122.773 106.593 122.827 106.656 122.884 106.716C123.039 106.878 123.201 107.033 123.367 107.184C123.417 107.23 123.466 107.276 123.517 107.32C123.697 107.477 123.883 107.626 124.075 107.77C124.117 107.801 124.158 107.833 124.201 107.864C124.405 108.012 124.615 108.151 124.831 108.283C124.864 108.303 124.898 108.324 124.932 108.344C125.159 108.48 125.393 108.605 125.632 108.721C125.656 108.733 125.681 108.745 125.706 108.757C125.955 108.876 126.21 108.984 126.471 109.081C126.487 109.087 126.503 109.093 126.52 109.099C126.789 109.198 127.063 109.285 127.343 109.36C127.353 109.362 127.362 109.364 127.372 109.367C127.658 109.443 127.95 109.505 128.246 109.554C128.25 109.555 128.253 109.555 128.257 109.556C128.558 109.605 128.863 109.641 129.173 109.662V106.223V97.2284C129.173 96.1254 129.231 95.0364 129.326 93.9574C129.428 92.7934 129.585 91.6444 129.791 90.5124C126.819 90.5214 124.165 91.8814 122.412 94.0114Z" fill="#231F20"/>
</g>
</g>
<g style="mix-blend-mode:multiply">
<mask id="mask3_6_95" style="mask-type:luminance" maskUnits="userSpaceOnUse" x="247" y="90" width="11" height="20">
<g style="mix-blend-mode:multiply">
<path d="M247.408 109.695H257.613V90.511H247.408V109.695Z" fill="white"/>
</g>
</mask>
<g mask="url(#mask3_6_95)">
<path d="M252.593 108.537C253.408 108.094 254.153 107.536 254.803 106.885C255.454 106.234 256.012 105.49 256.455 104.675C256.603 104.403 256.738 104.123 256.859 103.836C257.102 103.263 257.29 102.66 257.418 102.036C257.546 101.411 257.613 100.765 257.613 100.103C257.613 98.1164 257.009 96.2714 255.975 94.7404C255.63 94.2304 255.237 93.7544 254.803 93.3204C254.153 92.6694 253.408 92.1124 252.593 91.6694C252.321 91.5214 252.041 91.3864 251.755 91.2654C251.181 91.0224 250.578 90.8334 249.954 90.7064C249.33 90.5784 248.683 90.5114 248.021 90.5114C247.814 90.5114 247.612 90.5294 247.408 90.5424C247.611 91.6594 247.766 92.7914 247.867 93.9394C247.963 95.0244 248.021 96.1194 248.021 97.2284V106.275V109.695C248.683 109.695 249.33 109.628 249.954 109.5C250.578 109.372 251.181 109.184 251.755 108.941C252.041 108.82 252.321 108.685 252.593 108.537Z" fill="#231F20"/>
</g>
</g>
<g style="mix-blend-mode:multiply">
<mask id="mask4_6_95" style="mask-type:luminance" maskUnits="userSpaceOnUse" x="154" y="96" width="9" height="9">
<g style="mix-blend-mode:multiply">
<path d="M154.671 104.079H162.226V96.524H154.671V104.079Z" fill="white"/>
</g>
</mask>
<g mask="url(#mask4_6_95)">
<path d="M158.613 98.3107C158.613 99.3777 157.748 100.243 156.681 100.243C155.878 100.243 155.19 99.7537 154.898 99.0567C154.76 99.4487 154.671 99.8637 154.671 100.302C154.671 102.385 156.365 104.08 158.448 104.08C160.531 104.08 162.226 102.385 162.226 100.302C162.226 98.2187 160.531 96.5247 158.448 96.5247C158.159 96.5247 157.88 96.5637 157.609 96.6257C158.205 96.9547 158.613 97.5817 158.613 98.3107Z" fill="#231F20"/>
</g>
</g>
<g style="mix-blend-mode:multiply">
<mask id="mask5_6_95" style="mask-type:luminance" maskUnits="userSpaceOnUse" x="215" y="96" width="8" height="9">
<g style="mix-blend-mode:multiply">
<path d="M215.378 104.079H222.934V96.524H215.378V104.079Z" fill="white"/>
</g>
</mask>
<g mask="url(#mask5_6_95)">
<path d="M219.157 96.5242C218.867 96.5242 218.588 96.5642 218.317 96.6262C218.913 96.9552 219.321 97.5822 219.321 98.3102C219.321 99.3782 218.456 100.243 217.389 100.243C216.586 100.243 215.898 99.7532 215.606 99.0562C215.468 99.4482 215.378 99.8632 215.378 100.302C215.378 102.385 217.074 104.079 219.157 104.079C221.239 104.079 222.935 102.385 222.935 100.302C222.935 98.2192 221.239 96.5242 219.157 96.5242Z" fill="#231F20"/>
</g>
</g>
<g style="mix-blend-mode:multiply">
<mask id="mask6_6_95" style="mask-type:luminance" maskUnits="userSpaceOnUse" x="170" y="102" width="38" height="9">
<g style="mix-blend-mode:multiply">
<path d="M170.582 110.609H207.168V102.677H170.582V110.609Z" fill="white"/>
</g>
</mask>
<g mask="url(#mask6_6_95)">
<path d="M188.707 102.677C173.508 102.677 170.582 108.809 170.582 108.809C170.582 108.809 181.226 110.609 188.707 110.609C196.188 110.609 207.168 108.809 207.168 108.809C207.168 108.809 203.906 102.677 188.707 102.677Z" fill="#231F20"/>
</g>
</g>
<g style="mix-blend-mode:multiply">
<mask id="mask7_6_95" style="mask-type:luminance" maskUnits="userSpaceOnUse" x="180" y="48" width="1" height="2">
<g style="mix-blend-mode:multiply">
<path d="M180.345 49.257H180.39V48.8049H180.345V49.257Z" fill="white"/>
</g>
</mask>
<g mask="url(#mask7_6_95)">
<path d="M180.39 48.8046C180.361 49.0926 180.344 49.2566 180.344 49.2566H180.39V48.8046Z" fill="#231F20"/>
</g>
</g>
<g style="mix-blend-mode:multiply">
<mask id="mask8_6_95" style="mask-type:luminance" maskUnits="userSpaceOnUse" x="123" y="25" width="131" height="85">
<g style="mix-blend-mode:multiply">
<path d="M123.022 109.633H253.1V25.739H123.022V109.633Z" fill="white"/>
</g>
</mask>
<g mask="url(#mask8_6_95)">
<path d="M219.137 105.01C214.95 105.01 211.543 101.604 211.543 97.4173C211.543 93.2303 214.95 89.8243 219.137 89.8243C223.324 89.8243 226.731 93.2303 226.731 97.4173C226.731 101.604 223.324 105.01 219.137 105.01ZM166.06 97.4173C166.06 101.604 162.654 105.01 158.467 105.01C154.28 105.01 150.874 101.604 150.874 97.4173C150.874 93.2463 154.256 89.8523 158.421 89.8263C158.833 89.8613 159.245 89.8953 159.662 89.9283C163.282 90.5043 166.06 93.6383 166.06 97.4173ZM130.163 71.2873C130.166 71.2433 130.172 71.2013 130.175 71.1583C130.192 70.9643 130.214 70.7753 130.232 70.5833C130.236 70.5373 130.241 70.4913 130.246 70.4453C130.276 70.1423 130.301 69.8363 130.337 69.5393C130.344 69.4753 130.354 69.4143 130.362 69.3513C130.385 69.1663 130.412 68.9853 130.437 68.8013C130.446 68.7383 130.454 68.6743 130.463 68.6113C130.499 68.3553 130.53 68.0963 130.57 67.8443C130.583 67.7613 130.599 67.6823 130.613 67.6003C130.64 67.4333 130.671 67.2693 130.7 67.1033C130.714 67.0223 130.728 66.9413 130.743 66.8603C130.782 66.6413 130.818 66.4183 130.861 66.2013C130.881 66.1013 130.905 66.0043 130.925 65.9043C130.955 65.7573 130.988 65.6143 131.02 65.4683C131.041 65.3713 131.061 65.2733 131.083 65.1763C131.125 64.9883 131.164 64.7963 131.209 64.6103C131.237 64.4913 131.27 64.3773 131.299 64.2593C131.33 64.1363 131.362 64.0143 131.394 63.8913C131.423 63.7793 131.451 63.6663 131.481 63.5553C131.524 63.3933 131.565 63.2293 131.61 63.0683C131.649 62.9323 131.692 62.8003 131.732 62.6653C131.761 62.5653 131.792 62.4673 131.822 62.3683C131.86 62.2423 131.896 62.1143 131.936 61.9903C131.979 61.8523 132.02 61.7133 132.065 61.5773C132.115 61.4233 132.17 61.2743 132.222 61.1223C132.248 61.0463 132.275 60.9703 132.301 60.8953C132.349 60.7563 132.396 60.6153 132.445 60.4783C132.487 60.3643 132.527 60.2493 132.569 60.1353C132.635 59.9603 132.705 59.7903 132.773 59.6173C132.792 59.5693 132.811 59.5213 132.83 59.4743C132.889 59.3233 132.946 59.1713 133.007 59.0223C133.046 58.9283 133.084 58.8343 133.124 58.7403C133.21 58.5373 133.301 58.3383 133.39 58.1373C133.395 58.1263 133.4 58.1143 133.405 58.1023C133.477 57.9413 133.546 57.7763 133.62 57.6173C133.654 57.5423 133.69 57.4683 133.725 57.3933C133.823 57.1853 133.927 56.9813 134.028 56.7763C134.058 56.7173 134.086 56.6573 134.116 56.5983C134.172 56.4873 134.224 56.3733 134.281 56.2633C134.31 56.2063 134.342 56.1503 134.371 56.0933C134.477 55.8923 134.587 55.6953 134.696 55.4963C134.794 55.3173 134.889 55.1353 134.99 54.9593C135.013 54.9183 135.038 54.8793 135.062 54.8393C135.1 54.7713 135.142 54.7063 135.181 54.6393C135.255 54.5133 135.331 54.3883 135.406 54.2623C135.519 54.0763 135.63 53.8863 135.745 53.7033C135.761 53.6783 135.778 53.6543 135.793 53.6303C135.875 53.5003 135.961 53.3743 136.044 53.2463C136.082 53.1893 136.119 53.1313 136.157 53.0743C136.285 52.8803 136.413 52.6843 136.544 52.4943C136.551 52.4843 136.559 52.4743 136.566 52.4643C136.672 52.3103 136.782 52.1603 136.891 52.0083C136.91 51.9823 136.928 51.9553 136.947 51.9283C137.089 51.7323 137.231 51.5343 137.376 51.3423C137.379 51.3383 137.382 51.3343 137.385 51.3303C137.508 51.1673 137.634 51.0073 137.759 50.8463C137.764 50.8403 137.769 50.8343 137.774 50.8283C137.922 50.6383 138.071 50.4483 138.223 50.2613C138.237 50.2443 138.251 50.2283 138.265 50.2113C138.387 50.0623 138.511 49.9163 138.635 49.7703C138.645 49.7593 138.653 49.7483 138.662 49.7373C138.809 49.5643 138.956 49.3923 139.106 49.2223C139.132 49.1933 139.158 49.1653 139.184 49.1363C139.298 49.0073 139.414 48.8803 139.529 48.7543C139.552 48.7293 139.575 48.7033 139.598 48.6793C139.738 48.5263 139.878 48.3743 140.021 48.2243C140.06 48.1833 140.1 48.1443 140.139 48.1033C140.245 47.9933 140.351 47.8843 140.458 47.7763C140.494 47.7393 140.53 47.7013 140.566 47.6653C140.699 47.5313 140.832 47.3993 140.966 47.2673C141.021 47.2143 141.076 47.1633 141.131 47.1113C141.226 47.0193 141.321 46.9283 141.417 46.8373C141.467 46.7903 141.516 46.7423 141.566 46.6953C141.69 46.5793 141.815 46.4643 141.941 46.3503C142.013 46.2853 142.085 46.2223 142.157 46.1583C142.24 46.0843 142.322 46.0103 142.405 45.9373C142.468 45.8813 142.531 45.8243 142.595 45.7683C142.711 45.6683 142.827 45.5693 142.944 45.4703C143.037 45.3913 143.132 45.3143 143.226 45.2363C143.29 45.1833 143.353 45.1303 143.417 45.0773C143.495 45.0133 143.572 44.9473 143.65 44.8843C143.757 44.7973 143.865 44.7133 143.973 44.6283C144.101 44.5273 144.23 44.4273 144.359 44.3283C144.392 44.3033 144.424 44.2783 144.456 44.2533C144.549 44.1823 144.639 44.1083 144.732 44.0383C144.83 43.9653 144.928 43.8953 145.026 43.8233C145.188 43.7033 145.352 43.5853 145.515 43.4673C145.61 43.3993 145.703 43.3283 145.798 43.2613C145.814 43.2503 145.829 43.2393 145.845 43.2283C145.93 43.1683 146.017 43.1123 146.103 43.0523C146.267 42.9393 146.431 42.8273 146.596 42.7163C146.719 42.6343 146.841 42.5493 146.964 42.4683C147.042 42.4173 147.121 42.3683 147.2 42.3183C147.25 42.2853 147.301 42.2533 147.352 42.2203C147.467 42.1463 147.582 42.0723 147.698 41.9993C147.837 41.9123 147.975 41.8233 148.115 41.7373C148.18 41.6973 148.247 41.6593 148.312 41.6193C148.401 41.5653 148.49 41.5123 148.579 41.4593C148.659 41.4113 148.739 41.3633 148.819 41.3153C148.974 41.2243 149.128 41.1323 149.284 41.0433C149.337 41.0123 149.391 40.9833 149.445 40.9523C149.557 40.8883 149.67 40.8253 149.783 40.7623C149.84 40.7303 149.896 40.6983 149.953 40.6663C150.125 40.5713 150.297 40.4763 150.47 40.3833C150.51 40.3613 150.551 40.3403 150.592 40.3193C150.724 40.2483 150.857 40.1783 150.99 40.1083C151.028 40.0883 151.065 40.0683 151.103 40.0493C151.291 39.9513 151.48 39.8543 151.669 39.7583C151.697 39.7443 151.724 39.7313 151.752 39.7173C151.902 39.6423 152.053 39.5673 152.204 39.4933C152.224 39.4833 152.244 39.4733 152.265 39.4633C152.365 39.4143 152.465 39.3623 152.566 39.3143L152.567 39.3183L153.429 42.7093L156.402 54.3993C156.846 53.6893 157.36 53.0283 157.949 52.4393L157.916 52.3083C157.686 51.4273 156.308 46.1643 155.187 41.8823C154.86 40.6323 154.555 39.4673 154.307 38.5183L154.306 38.5163C154.137 37.8683 153.994 37.3213 153.888 36.9193C153.875 36.8693 153.87 36.8253 153.858 36.7763C153.135 33.7023 155.536 32.9573 155.536 32.9573C155.536 32.9573 156.517 32.6843 159.434 31.9203C159.201 31.9813 158.995 32.0583 158.788 32.1333L163.614 30.9063C163.833 30.8503 164.052 30.8283 164.269 30.8243C164.277 30.8243 164.286 30.8203 164.294 30.8203C164.305 30.8203 164.315 30.8173 164.325 30.8173C164.437 30.8173 164.547 30.8323 164.657 30.8453C164.698 30.8493 164.74 30.8483 164.781 30.8553C164.825 30.8623 164.868 30.8753 164.911 30.8843C164.921 30.8863 164.931 30.8893 164.94 30.8923C165.057 30.9173 165.174 30.9443 165.286 30.9843C165.327 30.9983 165.363 31.0193 165.403 31.0353C165.525 31.0843 165.643 31.1373 165.757 31.2023C165.811 31.2333 165.861 31.2683 165.913 31.3023C165.974 31.3423 166.038 31.3763 166.095 31.4213C166.127 31.4453 166.154 31.4753 166.184 31.5013C166.235 31.5433 166.284 31.5883 166.332 31.6343C166.412 31.7103 166.486 31.7923 166.557 31.8773C166.599 31.9283 166.641 31.9783 166.68 32.0313C166.75 32.1283 166.811 32.2323 166.869 32.3383C166.897 32.3893 166.928 32.4363 166.953 32.4893C166.98 32.5473 167 32.6083 167.024 32.6683C167.022 32.6693 167.02 32.6693 167.019 32.6703C167.061 32.7793 167.11 32.8853 167.14 33.0023L167.491 34.3833L168.335 37.7013L171.274 49.2573H173.319L170.179 36.9093L169.439 33.9983C169.59 33.9703 169.741 33.9423 169.891 33.9153C170.116 33.8743 170.339 33.8363 170.561 33.7983C170.727 33.7693 170.892 33.7403 171.056 33.7133C171.129 33.7013 171.204 33.6893 171.277 33.6763C171.426 33.6523 171.573 33.6303 171.72 33.6073C171.879 33.5823 172.039 33.5563 172.197 33.5323C172.437 33.4953 172.675 33.4613 172.913 33.4273C173.045 33.4083 173.178 33.3883 173.309 33.3693C173.665 33.3203 174.016 33.2733 174.364 33.2293C174.376 33.2273 174.389 33.2253 174.401 33.2243C174.591 33.2003 174.777 33.1783 174.964 33.1563C174.964 33.1563 174.966 33.1553 174.968 33.1553C175.135 33.1353 175.303 33.1143 175.468 33.0953C175.592 33.0813 175.713 33.0683 175.836 33.0543C176.063 33.0293 176.29 33.0043 176.512 32.9813C176.654 32.9663 176.792 32.9533 176.931 32.9393C177.129 32.9203 177.327 32.9003 177.521 32.8823C177.672 32.8683 177.82 32.8553 177.968 32.8423C178.1 32.8313 178.233 32.8183 178.363 32.8073C178.378 32.8063 178.392 32.8053 178.407 32.8043V36.2413V49.2573H180.345C180.345 49.2573 180.309 41.1813 180.283 35.6373C180.278 34.5123 180.273 33.4953 180.269 32.6683C180.267 32.0603 180.264 31.5513 180.262 31.1863C180.262 31.0783 180.271 30.9833 180.276 30.8813C180.296 30.4613 180.358 30.0953 180.455 29.7803C181.049 27.8493 182.841 27.7583 182.841 27.7583C182.841 27.7583 182.884 27.7573 182.946 27.7563H182.947C183.061 27.7423 183.173 27.7213 183.291 27.7213H186.875H191.187C191.391 27.7213 191.591 27.7443 191.783 27.7843C191.81 27.7903 191.834 27.8023 191.861 27.8083C192.016 27.8463 192.169 27.8893 192.313 27.9503C192.324 27.9553 192.333 27.9623 192.344 27.9673C192.353 27.9713 192.361 27.9773 192.371 27.9813C192.693 28.1273 192.988 28.3253 193.236 28.5733C193.254 28.5913 193.267 28.6143 193.285 28.6333C193.779 29.1543 194.088 29.8523 194.088 30.6223V30.7873V32.2383V32.5733V35.9903V49.2573H196.07V35.4813V32.6823C196.119 32.6853 196.169 32.6893 196.218 32.6923C196.375 32.7023 196.533 32.7133 196.693 32.7253C196.842 32.7363 196.994 32.7473 197.146 32.7593C197.308 32.7723 197.471 32.7843 197.636 32.7983C197.792 32.8113 197.951 32.8253 198.11 32.8393C198.169 32.8443 198.229 32.8493 198.289 32.8543C198.4 32.8643 198.51 32.8743 198.623 32.8843C198.78 32.8993 198.941 32.9153 199.101 32.9313C199.278 32.9483 199.453 32.9653 199.633 32.9843C199.737 32.9943 199.843 33.0063 199.949 33.0183C199.959 33.0193 199.97 33.0203 199.981 33.0213C200.034 33.0273 200.087 33.0333 200.139 33.0393C200.317 33.0583 200.493 33.0773 200.673 33.0973C200.857 33.1193 201.044 33.1423 201.23 33.1653C201.562 33.2053 201.898 33.2483 202.238 33.2933C202.422 33.3173 202.604 33.3413 202.789 33.3663C202.982 33.3933 203.177 33.4223 203.372 33.4513C203.549 33.4773 203.724 33.5013 203.903 33.5293C204.1 33.5593 204.299 33.5913 204.498 33.6223C204.678 33.6513 204.856 33.6793 205.037 33.7093C205.12 33.7223 205.204 33.7373 205.287 33.7513L205.286 33.7543L204.439 37.0863L201.344 49.2573H203.39L204.873 43.4233C205.386 41.3443 205.957 39.0293 206.437 37.0833C206.729 35.9013 206.986 34.8593 207.176 34.0913C207.23 33.8713 207.28 33.6673 207.323 33.4963C207.43 33.0623 207.571 32.7013 207.731 32.3933C207.908 32.0533 208.112 31.7853 208.327 31.5713C209.359 30.5453 210.662 30.8023 210.662 30.8023C210.662 30.8023 211.655 31.0313 214.582 31.7533C214.335 31.6923 214.104 31.6573 213.875 31.6253L218.702 32.8523C218.703 32.8523 218.703 32.8533 218.703 32.8533C218.924 32.9093 219.128 32.9953 219.322 33.0963C219.383 33.1283 219.436 33.1663 219.494 33.2023C219.624 33.2823 219.747 33.3693 219.862 33.4673C219.917 33.5153 219.97 33.5633 220.022 33.6153C220.129 33.7223 220.225 33.8373 220.314 33.9593C220.351 34.0113 220.392 34.0593 220.426 34.1123C220.54 34.2913 220.639 34.4793 220.712 34.6793C220.881 35.1443 220.92 35.6553 220.829 36.1683C220.817 36.2383 220.816 36.3083 220.798 36.3783L220.406 37.9203L220.405 37.9233L219.658 40.8613L216.074 54.9563C216.65 56.0153 217.043 57.1843 217.24 58.4153L221.391 42.0923L222.25 38.7123L222.251 38.7103C222.28 38.7233 222.309 38.7353 222.339 38.7493C222.448 38.7983 222.556 38.8493 222.665 38.8993C222.868 38.9923 223.07 39.0863 223.272 39.1823C223.476 39.2783 223.679 39.3763 223.882 39.4763C224.082 39.5733 224.281 39.6723 224.48 39.7723C224.684 39.8753 224.887 39.9813 225.09 40.0873C225.285 40.1893 225.48 40.2913 225.674 40.3963C225.88 40.5073 226.085 40.6213 226.29 40.7353C226.479 40.8413 226.669 40.9463 226.857 41.0543C227.066 41.1743 227.273 41.2993 227.48 41.4223C227.661 41.5303 227.842 41.6363 228.022 41.7473C228.243 41.8833 228.461 42.0243 228.68 42.1643C228.843 42.2683 229.007 42.3703 229.169 42.4763C229.453 42.6633 229.733 42.8553 230.013 43.0493C230.191 43.1723 230.368 43.2973 230.544 43.4233C230.825 43.6233 231.104 43.8243 231.38 44.0323C231.53 44.1453 231.676 44.2623 231.825 44.3773C232.038 44.5423 232.252 44.7073 232.462 44.8773C232.62 45.0043 232.774 45.1363 232.93 45.2653C233.127 45.4293 233.324 45.5933 233.518 45.7613C233.676 45.8983 233.832 46.0403 233.989 46.1803C234.175 46.3473 234.362 46.5153 234.546 46.6863C234.701 46.8313 234.854 46.9793 235.008 47.1273C235.188 47.3023 235.368 47.4773 235.546 47.6563C235.697 47.8073 235.846 47.9613 235.994 48.1163C236.169 48.2983 236.342 48.4823 236.514 48.6683C236.659 48.8263 236.804 48.9863 236.947 49.1473C237.116 49.3373 237.282 49.5293 237.447 49.7233C237.587 49.8883 237.727 50.0543 237.865 50.2223C238.028 50.4223 238.189 50.6253 238.348 50.8293C238.48 50.9983 238.613 51.1663 238.742 51.3383C238.904 51.5523 239.061 51.7713 239.218 51.9903C239.339 52.1603 239.463 52.3283 239.582 52.5003C239.745 52.7373 239.903 52.9803 240.061 53.2223C240.167 53.3843 240.275 53.5433 240.379 53.7073C240.563 54.0003 240.74 54.3003 240.917 54.6013C240.989 54.7223 241.063 54.8403 241.134 54.9623C241.376 55.3873 241.612 55.8203 241.839 56.2603C241.902 56.3823 241.96 56.5093 242.022 56.6323C242.185 56.9563 242.346 57.2813 242.5 57.6143C242.582 57.7913 242.658 57.9723 242.738 58.1513C242.865 58.4393 242.993 58.7263 243.114 59.0203C243.195 59.2193 243.272 59.4233 243.351 59.6253C243.421 59.8053 243.495 59.9813 243.563 60.1643C243.571 60.1863 243.581 60.2083 243.59 60.2313C243.619 60.3123 243.646 60.3953 243.675 60.4773C243.753 60.6903 243.826 60.9083 243.9 61.1253C243.95 61.2703 244.002 61.4113 244.05 61.5583C244.062 61.5943 244.076 61.6293 244.087 61.6663C244.122 61.7723 244.152 61.8813 244.185 61.9883C244.256 62.2133 244.323 62.4403 244.39 62.6683C244.422 62.7753 244.456 62.8793 244.487 62.9873C244.502 63.0423 244.52 63.0943 244.535 63.1493C244.573 63.2823 244.605 63.4203 244.641 63.5553C244.703 63.7883 244.764 64.0233 244.823 64.2603C244.833 64.3043 244.845 64.3473 244.856 64.3903C244.88 64.4893 244.908 64.5833 244.932 64.6823C244.97 64.8443 245.002 65.0123 245.039 65.1763C245.093 65.4173 245.146 65.6593 245.196 65.9043C245.201 65.9293 245.207 65.9533 245.212 65.9783C245.231 66.0743 245.255 66.1663 245.274 66.2633C245.312 66.4603 245.343 66.6643 245.379 66.8633C245.423 67.1073 245.468 67.3503 245.508 67.5983C245.525 67.6983 245.545 67.7953 245.561 67.8963C245.597 68.1323 245.626 68.3763 245.659 68.6153C245.683 68.7883 245.708 68.9613 245.73 69.1363C245.739 69.2083 245.75 69.2783 245.759 69.3503C245.769 69.4283 245.781 69.5023 245.79 69.5803C245.824 69.8653 245.848 70.1593 245.876 70.4493C245.895 70.6363 245.914 70.8223 245.932 71.0103C245.936 71.0593 245.942 71.1073 245.946 71.1573C245.95 71.2103 245.957 71.2613 245.961 71.3153C245.99 71.6763 246.008 72.0473 246.03 72.4153C246.04 72.6013 246.055 72.7833 246.064 72.9713C245.901 72.9763 245.737 72.9933 245.577 73.0393C244.656 73.3023 243.678 73.5563 242.656 73.8053C241.858 73.9993 241.034 74.1893 240.177 74.3743C238.797 74.6713 237.338 74.9563 235.812 75.2283V72.9333C235.812 70.3493 233.71 68.2463 231.125 68.2463H223.229C222.465 68.2463 221.754 68.4473 221.116 68.7723C219.596 69.5483 218.541 71.1123 218.541 72.9333V77.4363C213.235 77.9013 207.554 78.2373 201.53 78.4373C197.369 78.5763 193.054 78.6523 188.593 78.6623C188.549 78.6623 188.506 78.6643 188.463 78.6663H188.33L188.063 78.6653L187.791 78.6663H187.659C187.616 78.6643 187.573 78.6623 187.529 78.6623C183.602 78.6533 179.789 78.5923 176.092 78.4843C170.072 78.3083 164.382 77.9993 159.063 77.5633V72.9333C159.063 72.8543 159.043 72.7803 159.039 72.7023C158.954 70.9813 157.943 69.5143 156.488 68.7723C156.231 68.6413 155.962 68.5363 155.68 68.4533C155.263 68.3323 154.831 68.2463 154.376 68.2463H146.479C143.895 68.2463 141.792 70.3493 141.792 72.9333V75.4863C140.064 75.1963 138.421 74.8903 136.865 74.5683C135.681 74.3233 134.545 74.0703 133.466 73.8073C132.443 73.5593 131.469 73.3023 130.545 73.0393C130.384 72.9933 130.221 72.9763 130.058 72.9713C130.065 72.8073 130.079 72.6483 130.088 72.4853C130.089 72.4583 130.091 72.4313 130.093 72.4043C130.114 72.0303 130.133 71.6543 130.163 71.2873ZM242.09 84.3143C241.974 84.3413 241.855 84.3683 241.737 84.3953C241.362 84.4803 240.971 84.5663 240.57 84.6533C240.539 84.6593 240.511 84.6663 240.48 84.6723C240.477 84.6733 240.475 84.6733 240.472 84.6743C240.326 84.7053 240.181 84.7373 240.032 84.7683C240.03 84.7683 240.027 84.7693 240.025 84.7693C240.006 84.7733 239.986 84.7773 239.967 84.7813C239.553 84.8683 239.124 84.9553 238.684 85.0433C238.669 85.0463 238.655 85.0493 238.639 85.0523C238.486 85.0823 238.336 85.1123 238.179 85.1433C237.665 85.2433 237.128 85.3433 236.58 85.4433C236.444 85.4673 236.314 85.4923 236.176 85.5173C235.502 85.6373 234.803 85.7583 234.077 85.8773C234.067 85.8783 234.058 85.8803 234.048 85.8823C234.041 85.8833 234.033 85.8843 234.026 85.8863C234.024 85.8863 234.023 85.8863 234.021 85.8863C233.795 85.9233 233.558 85.9603 233.326 85.9973C233.073 86.0373 232.825 86.0783 232.565 86.1183C232.44 86.1373 232.308 86.1563 232.181 86.1753C231.876 86.2213 231.568 86.2683 231.255 86.3133C230.937 86.3603 230.611 86.4063 230.284 86.4523C229.595 86.5493 228.885 86.6443 228.156 86.7393C227.982 86.7613 227.812 86.7843 227.637 86.8063H227.634C227.117 86.8723 226.592 86.9363 226.056 87.0003C226.041 87.0023 226.026 87.0043 226.011 87.0063C225.977 87.0103 225.941 87.0133 225.907 87.0173C224.155 87.2243 222.299 87.4223 220.333 87.6063C220.331 87.6073 220.33 87.6073 220.328 87.6073C220.323 87.6073 220.318 87.6083 220.313 87.6083C219.327 87.7013 218.311 87.7903 217.27 87.8753C217.11 87.8883 216.948 87.9013 216.787 87.9143C215.934 87.9833 215.061 88.0483 214.171 88.1123C213.837 88.1353 213.501 88.1593 213.162 88.1823C212.494 88.2273 211.814 88.2703 211.124 88.3133C211.121 88.3133 211.118 88.3133 211.115 88.3133C210.566 88.3473 210.011 88.3793 209.449 88.4103C209.049 88.4333 208.65 88.4553 208.244 88.4763C208.219 88.4773 208.194 88.4793 208.169 88.4803C208.166 88.4803 208.164 88.4803 208.161 88.4813C207.321 88.5243 206.462 88.5643 205.593 88.6033C205.59 88.6033 205.588 88.6033 205.586 88.6033C205.231 88.6193 204.875 88.6343 204.515 88.6493C203.556 88.6893 202.578 88.7253 201.583 88.7583C201.296 88.7673 201.007 88.7763 200.717 88.7853C200.704 88.7863 200.691 88.7863 200.677 88.7873C199.612 88.8203 198.528 88.8493 197.422 88.8743C197.209 88.8793 196.992 88.8833 196.777 88.8873C195.574 88.9133 194.35 88.9343 193.098 88.9493C192.971 88.9513 192.841 88.9523 192.714 88.9533C191.368 88.9683 190 88.9793 188.597 88.9823V88.9873C188.414 88.9873 188.243 88.9853 188.061 88.9853C187.879 88.9853 187.707 88.9873 187.524 88.9873V88.9823C187.522 88.9823 187.52 88.9823 187.518 88.9823C186.017 88.9793 184.548 88.9683 183.112 88.9513C183.078 88.9503 183.046 88.9503 183.012 88.9493C182.631 88.9453 182.27 88.9363 181.894 88.9303C181.003 88.9173 180.117 88.9033 179.248 88.8853C179.128 88.8833 179.001 88.8813 178.882 88.8793C178.515 88.8713 178.167 88.8593 177.804 88.8503C177.803 88.8503 177.802 88.8503 177.8 88.8503C177.504 88.8423 177.215 88.8343 176.921 88.8263C176.222 88.8073 175.509 88.7913 174.826 88.7693C174.568 88.7603 174.323 88.7493 174.067 88.7403C174.066 88.7403 174.065 88.7403 174.063 88.7403C173.013 88.7043 171.97 88.6673 170.96 88.6233H170.959C170.776 88.6163 170.604 88.6063 170.423 88.5983C170.416 88.5983 170.41 88.5973 170.403 88.5973C169.758 88.5683 169.133 88.5363 168.501 88.5053C168.09 88.4853 167.665 88.4673 167.261 88.4453C167.255 88.4453 167.248 88.4443 167.242 88.4443C167.165 88.4403 167.093 88.4353 167.017 88.4313C166.648 88.4103 166.299 88.3873 165.936 88.3663C165.204 88.3243 164.467 88.2833 163.76 88.2373C163.703 88.2343 163.65 88.2303 163.594 88.2263C163.594 88.2263 163.592 88.2263 163.591 88.2263C162.51 88.1553 161.452 88.0813 160.425 88.0023H160.423C160.417 88.0023 160.412 88.0013 160.406 88.0013C160.113 87.9783 159.839 87.9533 159.55 87.9303C158.772 87.8693 157.993 87.8073 157.246 87.7413C156.592 87.6843 155.95 87.6253 155.32 87.5643C155.258 87.5583 155.2 87.5523 155.139 87.5463C155.079 87.5403 155.021 87.5343 154.962 87.5293C154.605 87.4943 154.253 87.4593 153.903 87.4233C153.672 87.3993 153.447 87.3753 153.219 87.3523C153.068 87.3363 152.915 87.3203 152.765 87.3043C152.041 87.2273 151.334 87.1483 150.643 87.0683C150.481 87.0493 150.319 87.0303 150.156 87.0113C150.033 86.9963 149.909 86.9823 149.789 86.9683C149.326 86.9123 148.873 86.8553 148.425 86.7983C148.424 86.7983 148.422 86.7983 148.421 86.7983C148.404 86.7963 148.387 86.7933 148.369 86.7913C148.193 86.7693 148.018 86.7463 147.843 86.7233C147.839 86.7233 147.836 86.7223 147.833 86.7223C147.351 86.6593 146.892 86.5953 146.428 86.5313C146.229 86.5033 146.022 86.4763 145.826 86.4493C145.719 86.4343 145.612 86.4193 145.507 86.4043C145.231 86.3653 144.97 86.3243 144.701 86.2853C144.328 86.2303 143.945 86.1753 143.584 86.1193C143.582 86.1193 143.58 86.1193 143.579 86.1193C143.577 86.1183 143.576 86.1183 143.574 86.1183C143.571 86.1173 143.568 86.1173 143.565 86.1163C141.312 85.7693 139.316 85.4103 137.52 85.0553C136.638 84.8803 135.791 84.7063 135.013 84.5343C133.786 84.2633 132.685 83.9973 131.704 83.7433C128.395 82.8853 126.446 82.1593 125.569 81.7963C125.567 81.7963 125.565 81.7953 125.564 81.7953C125.558 81.7923 125.553 81.7903 125.547 81.7883C125.545 81.7873 125.544 81.7863 125.542 81.7853C125.432 81.7403 125.34 81.7003 125.265 81.6673C125.264 81.6673 125.262 81.6663 125.261 81.6663C125.253 81.6633 125.244 81.6593 125.237 81.6563C125.236 81.6553 125.235 81.6553 125.234 81.6543C125.169 81.6263 125.121 81.6043 125.085 81.5873C125.083 81.5863 125.079 81.5843 125.077 81.5843C125.075 81.5823 125.068 81.5803 125.066 81.5783C125.061 81.5763 125.062 81.5763 125.058 81.5753L125.057 81.5743C125.055 81.5733 125.056 81.5743 125.054 81.5733C125.036 81.5643 125.027 81.5603 125.021 81.5573C125.019 81.5563 125.008 81.5513 125.008 81.5513L125.005 81.5493C125.005 81.5493 125.036 81.5173 125.079 81.4703C125.089 81.4613 125.092 81.4573 125.103 81.4453C125.156 81.3893 125.228 81.3123 125.322 81.2123C125.327 81.2073 125.329 81.2043 125.334 81.1993C125.43 81.0973 125.543 80.9753 125.672 80.8363C125.694 80.8133 125.716 80.7893 125.738 80.7643C125.851 80.6423 125.973 80.5103 126.104 80.3673C126.124 80.3453 126.141 80.3273 126.161 80.3053C126.168 80.2973 126.177 80.2883 126.184 80.2803C126.363 80.0843 126.553 79.8743 126.752 79.6543C126.787 79.6153 126.821 79.5773 126.856 79.5383C126.916 79.4723 126.973 79.4083 127.033 79.3413C127.187 79.1683 127.343 78.9923 127.498 78.8153C127.654 78.6373 127.81 78.4583 127.964 78.2793C128.117 78.1003 128.268 77.9223 128.414 77.7463C128.56 77.5713 128.702 77.3993 128.835 77.2323C128.969 77.0653 129.096 76.9043 129.213 76.7503C129.251 76.7003 129.281 76.6573 129.317 76.6083C129.501 76.3603 129.664 76.1293 129.778 75.9383C129.914 75.7113 129.992 75.5333 129.992 75.4243C129.992 75.2623 130 75.1063 130.001 74.9463C130.333 75.0403 130.689 75.1383 131.058 75.2373C131.132 75.2573 131.207 75.2773 131.283 75.2973C131.668 75.3993 132.068 75.5033 132.492 75.6093C132.502 75.6113 132.512 75.6133 132.521 75.6163C132.801 75.6853 133.105 75.7563 133.402 75.8273C133.568 75.8673 133.722 75.9053 133.894 75.9453C133.931 75.9543 133.968 75.9633 134.006 75.9713C134.506 76.0873 135.028 76.2043 135.575 76.3223C135.581 76.3233 135.587 76.3243 135.592 76.3253C136.712 76.5663 137.932 76.8113 139.258 77.0543C140.059 77.2023 140.913 77.3483 141.792 77.4943C141.865 77.5063 141.943 77.5183 142.017 77.5313C142.53 77.6153 143.039 77.6993 143.579 77.7833V76.9863V75.8413V75.7753V74.7203V72.9333V72.4713C143.579 72.4713 144.048 70.0323 146.29 70.0323H146.479H150.762H152.321H154.376C155.971 70.0323 157.276 71.3383 157.276 72.9333V74.7203V77.4153V78.6173V79.4073C157.856 79.4583 158.465 79.5053 159.063 79.5543C159.447 79.5853 159.819 79.6183 160.211 79.6483C160.332 79.6573 160.452 79.6673 160.574 79.6763C161.603 79.7543 162.655 79.8293 163.737 79.8993H163.738C163.74 79.8993 163.741 79.8993 163.743 79.8993C163.748 79.9003 163.753 79.9003 163.758 79.9003C163.76 79.9003 163.762 79.9013 163.764 79.9013C164.787 79.9673 165.841 80.0293 166.912 80.0873C166.913 80.0873 166.914 80.0873 166.915 80.0873C166.918 80.0883 166.921 80.0883 166.924 80.0883C167.114 80.0983 167.303 80.1093 167.494 80.1193C167.498 80.1193 167.501 80.1193 167.504 80.1193C168.609 80.1783 169.734 80.2333 170.891 80.2833C170.893 80.2833 170.896 80.2833 170.898 80.2843C170.934 80.2853 170.971 80.2863 171.007 80.2883C171.014 80.2883 171.021 80.2883 171.028 80.2893C171.03 80.2893 171.032 80.2893 171.034 80.2893C172.119 80.3353 173.232 80.3763 174.362 80.4143C174.365 80.4143 174.368 80.4143 174.371 80.4143C174.512 80.4193 174.644 80.4253 174.785 80.4303C174.904 80.4343 175.031 80.4363 175.15 80.4403C175.152 80.4403 175.154 80.4403 175.155 80.4403C175.669 80.4563 176.203 80.4693 176.725 80.4833C177.422 80.5023 178.103 80.5243 178.816 80.5403C178.856 80.5413 178.897 80.5413 178.937 80.5423C180.129 80.5683 181.353 80.5883 182.593 80.6043C182.597 80.6053 182.601 80.6053 182.605 80.6053C182.767 80.6073 182.92 80.6113 183.084 80.6133C183.234 80.6153 183.395 80.6143 183.546 80.6163C183.55 80.6163 183.554 80.6163 183.558 80.6163C184.857 80.6313 186.173 80.6423 187.524 80.6453V80.6503C187.707 80.6503 187.879 80.6473 188.061 80.6473C188.243 80.6473 188.414 80.6503 188.597 80.6503V80.6453C190.037 80.6413 191.436 80.6293 192.816 80.6133C192.82 80.6133 192.824 80.6133 192.828 80.6133C193.117 80.6103 193.407 80.6063 193.693 80.6033C193.696 80.6033 193.7 80.6023 193.703 80.6023C195.053 80.5843 196.379 80.5613 197.672 80.5313C197.817 80.5283 197.957 80.5233 198.102 80.5203C199.051 80.4973 199.971 80.4683 200.89 80.4393C201.157 80.4313 201.435 80.4253 201.699 80.4163C201.715 80.4163 201.731 80.4153 201.747 80.4153C201.917 80.4093 202.089 80.4043 202.257 80.3983C202.26 80.3983 202.262 80.3983 202.264 80.3983C203.526 80.3533 204.759 80.3043 205.962 80.2503C205.965 80.2503 205.968 80.2503 205.971 80.2503C206.106 80.2433 206.238 80.2373 206.372 80.2313C206.377 80.2303 206.382 80.2303 206.387 80.2303C208.887 80.1143 211.266 79.9773 213.521 79.8223C213.593 79.8173 213.665 79.8123 213.737 79.8073C215.411 79.6903 216.998 79.5623 218.541 79.4283C219.139 79.3763 219.75 79.3263 220.328 79.2713V78.4813V77.7833V77.2793V74.7203V72.9333V72.4713C220.328 72.4713 220.797 70.0323 223.039 70.0323H223.229H225.283H227.512H231.125C231.524 70.0323 231.904 70.1143 232.251 70.2613C232.598 70.4093 232.911 70.6223 233.173 70.8853C233.699 71.4103 234.026 72.1353 234.026 72.9333V74.7203V75.5363V75.8413V76.7493V77.5473C234.496 77.4703 234.941 77.3923 235.389 77.3153C235.528 77.2913 235.675 77.2673 235.812 77.2433C237.144 77.0083 238.382 76.7723 239.521 76.5383C240.063 76.4263 240.583 76.3153 241.083 76.2053C241.087 76.2043 241.091 76.2033 241.095 76.2023H241.097C241.097 76.2023 241.099 76.2013 241.1 76.2013C241.225 76.1743 241.337 76.1473 241.459 76.1193C241.801 76.0423 242.141 75.9663 242.463 75.8903H242.465C242.486 75.8853 242.509 75.8803 242.53 75.8753C242.543 75.8723 242.554 75.8693 242.567 75.8663C242.62 75.8533 242.668 75.8413 242.72 75.8293C243.102 75.7383 243.477 75.6473 243.831 75.5583C243.842 75.5553 243.853 75.5523 243.863 75.5503C243.874 75.5473 243.886 75.5443 243.897 75.5413C244.251 75.4523 244.586 75.3643 244.911 75.2783C244.953 75.2663 245.001 75.2553 245.043 75.2443C245.082 75.2333 245.115 75.2233 245.154 75.2133C245.488 75.1233 245.812 75.0343 246.114 74.9483C246.116 74.9473 246.118 74.9463 246.12 74.9463C246.122 75.1063 246.129 75.2623 246.129 75.4243C246.129 75.5333 246.207 75.7113 246.344 75.9383C246.458 76.1293 246.62 76.3603 246.805 76.6083C246.841 76.6573 246.871 76.7003 246.909 76.7503C247.025 76.9043 247.152 77.0653 247.286 77.2323C247.42 77.3993 247.561 77.5713 247.707 77.7463C247.853 77.9223 248.004 78.1003 248.158 78.2793C248.311 78.4583 248.467 78.6373 248.623 78.8153C248.706 78.9093 248.787 79.0013 248.87 79.0943C248.943 79.1763 249.016 79.2603 249.088 79.3413C249.369 79.6563 249.632 79.9453 249.881 80.2183C249.906 80.2453 249.936 80.2783 249.96 80.3053C250.083 80.4393 250.198 80.5643 250.307 80.6823C250.329 80.7063 250.346 80.7243 250.368 80.7473C250.432 80.8173 250.485 80.8753 250.543 80.9363C250.607 81.0053 250.664 81.0673 250.719 81.1263C250.767 81.1773 250.807 81.2203 250.847 81.2633C250.905 81.3243 250.948 81.3703 250.988 81.4123C251.015 81.4423 251.034 81.4613 251.052 81.4813C251.093 81.5243 251.117 81.5493 251.117 81.5493C251.117 81.5493 251.108 81.5533 251.107 81.5543L251.105 81.5553C251.101 81.5573 251.095 81.5593 251.091 81.5623C251.085 81.5653 251.082 81.5663 251.071 81.5713C251.069 81.5723 251.069 81.5723 251.067 81.5733C251.065 81.5743 251.066 81.5743 251.064 81.5753C251.061 81.5763 251.06 81.5763 251.057 81.5783C251.054 81.5793 251.046 81.5833 251.042 81.5843C251.039 81.5863 251.034 81.5883 251.031 81.5903C251 81.6043 250.963 81.6213 250.913 81.6433C250.912 81.6443 250.911 81.6443 250.91 81.6453C250.907 81.6463 250.907 81.6463 250.904 81.6473C250.899 81.6503 250.896 81.6513 250.89 81.6533C250.88 81.6583 250.864 81.6653 250.853 81.6693C250.851 81.6703 250.847 81.6723 250.845 81.6733C250.798 81.6933 250.742 81.7173 250.683 81.7423C250.671 81.7473 250.662 81.7513 250.649 81.7573C250.647 81.7573 250.646 81.7583 250.645 81.7593C250.615 81.7713 250.582 81.7843 250.549 81.7983L250.548 81.7993C250.546 81.7993 250.544 81.8003 250.543 81.8013C250.473 81.8303 250.392 81.8623 250.308 81.8963C250.293 81.9023 250.281 81.9073 250.266 81.9133C250.264 81.9133 250.263 81.9143 250.261 81.9153C250.223 81.9303 250.185 81.9453 250.144 81.9613C250.141 81.9623 250.138 81.9633 250.135 81.9643C250.133 81.9653 250.131 81.9653 250.13 81.9663C250.029 82.0053 249.915 82.0483 249.798 82.0923C249.783 82.0983 249.771 82.1033 249.755 82.1093C249.753 82.1103 249.751 82.1103 249.749 82.1113C249.706 82.1273 249.667 82.1423 249.622 82.1583C249.617 82.1603 249.61 82.1633 249.605 82.1653C249.604 82.1653 249.602 82.1663 249.601 82.1663C249.451 82.2213 249.285 82.2803 249.111 82.3413C249.11 82.3423 249.108 82.3433 249.106 82.3433C249.101 82.3453 249.096 82.3473 249.091 82.3493C249.089 82.3493 249.087 82.3503 249.085 82.3513C249.049 82.3643 249.019 82.3753 248.982 82.3873C248.974 82.3903 248.963 82.3943 248.955 82.3973C248.953 82.3973 248.952 82.3983 248.951 82.3983C248.736 82.4723 248.502 82.5513 248.252 82.6333C248.249 82.6343 248.247 82.6353 248.244 82.6353C248.227 82.6413 248.214 82.6463 248.196 82.6523C248.19 82.6543 248.183 82.6563 248.176 82.6583C248.16 82.6633 248.141 82.6693 248.125 82.6743C247.869 82.7573 247.596 82.8443 247.304 82.9333C247.292 82.9373 247.279 82.9413 247.268 82.9443C247.184 82.9693 247.095 82.9963 247.009 83.0223C246.772 83.0933 246.529 83.1653 246.27 83.2393C246.23 83.2513 246.188 83.2633 246.147 83.2743C246.065 83.2973 245.983 83.3203 245.9 83.3443C245.735 83.3903 245.561 83.4383 245.388 83.4853C245.239 83.5253 245.103 83.5653 244.948 83.6063C244.895 83.6203 244.837 83.6353 244.784 83.6493C244.782 83.6493 244.781 83.6503 244.78 83.6503C244.664 83.6813 244.534 83.7133 244.415 83.7443C244.152 83.8123 243.893 83.8803 243.613 83.9503C243.514 83.9743 243.411 83.9993 243.311 84.0233C243.309 84.0243 243.307 84.0243 243.305 84.0253C242.928 84.1173 242.537 84.2113 242.129 84.3053L242.127 84.3063C242.114 84.3093 242.103 84.3113 242.09 84.3143ZM253.069 81.8953C253.179 81.2763 252.988 80.6403 252.554 80.1843C250.762 78.2973 248.662 75.8973 248.105 75.0233L248.103 74.9293C248.1 74.6083 248.017 74.2993 247.871 74.0233C247.429 57.0183 238.905 44.2743 223.139 37.1493C222.992 37.0823 222.843 37.0263 222.696 36.9613L222.72 36.8673C223.383 34.2573 221.8 31.5943 219.191 30.9303L211.538 28.9843C211.146 28.8843 210.742 28.8343 210.339 28.8343C208.273 28.8343 206.469 30.1313 205.768 32.0323C202.768 31.5213 199.961 31.1983 197.499 31.0013C197.01 30.9623 196.53 30.9263 196.07 30.8963V30.6223C196.07 30.2963 196.035 29.9783 195.974 29.6703C195.53 27.4323 193.554 25.7383 191.187 25.7383H183.291C180.598 25.7383 178.407 27.9293 178.407 30.6223V31.0173C175.845 31.2283 172.92 31.5723 169.799 32.1253C169.53 32.1723 169.253 32.2293 168.981 32.2803C168.919 32.0783 168.854 31.8783 168.768 31.6903C167.985 29.9743 166.266 28.8343 164.325 28.8343C163.921 28.8343 163.518 28.8853 163.125 28.9843L155.473 30.9303C152.863 31.5943 151.28 34.2573 151.944 36.8673L152.122 37.5693C136.917 44.7663 128.685 57.3363 128.251 74.0233C128.105 74.2993 128.021 74.6083 128.019 74.9283L128.017 75.0233C127.46 75.8973 125.359 78.2973 123.567 80.1843C123.133 80.6403 122.942 81.2763 123.053 81.8963C123.163 82.5173 123.561 83.0483 124.126 83.3273C124.259 83.3923 126.3 84.3773 131.039 85.6173C132.03 85.8763 133.136 86.1463 134.372 86.4213C135.156 86.5963 135.998 86.7733 136.885 86.9513C136.319 88.9023 136.026 90.8693 136.006 92.7923C135.968 96.4763 136.962 99.9773 138.997 102.876C139.504 103.599 140.054 104.297 140.693 104.937C147.932 112.176 160.941 110.903 169.75 102.095C173.092 98.7523 175.344 94.8053 176.463 90.7973C180 90.8963 183.636 90.9553 187.376 90.9653C187.425 90.9683 187.475 90.9703 187.524 90.9703L187.82 90.9693L188.063 90.9683L188.301 90.9693L188.597 90.9703C188.647 90.9703 188.697 90.9683 188.746 90.9653C193.006 90.9533 197.137 90.8833 201.131 90.7553C202.246 94.7773 204.5 98.7403 207.854 102.095C216.663 110.903 229.672 112.176 236.911 104.937C237.623 104.225 238.228 103.444 238.776 102.63C240.662 99.8303 241.607 96.4973 241.605 92.9873C241.604 90.9113 241.266 88.7803 240.625 86.6703C241.378 86.5103 242.075 86.3523 242.744 86.1963C243.993 85.9043 245.094 85.6223 246.068 85.3533C250.107 84.2393 251.879 83.3853 251.997 83.3263C252.561 83.0463 252.959 82.5153 253.069 81.8953Z" fill="#231F20"/>
</g>
</g>
<path d="M194.082 66.6029H194.413H201.588H201.903V62.7099H194.578C194.468 62.7039 194.359 62.6929 194.247 62.6929C194.136 62.6929 194.027 62.7039 193.916 62.7099H193.605V62.7319C191.902 62.9239 190.429 63.8729 189.513 65.2339L189.51 62.7159H183.375L181.864 65.6879L180.354 62.7159H174.218V74.2739H178.442V67.4759L180.803 72.7969H182.925L185.286 67.4759V74.2739H189.51H189.525L189.522 71.7229C190.552 73.2439 192.284 74.2429 194.247 74.2429C194.547 74.2429 194.838 74.2869 195.125 74.2429H201.903V70.3499H201.609H194.739C194.739 70.3499 194.198 70.3939 193.756 70.2749C192.922 69.9969 192.382 69.3329 192.382 68.4679C192.382 67.4869 193.132 66.6889 194.082 66.6029Z" fill="#231F20"/>
<g style="mix-blend-mode:multiply">
<mask id="mask9_6_95" style="mask-type:luminance" maskUnits="userSpaceOnUse" x="180" y="48" width="1" height="2">
<g style="mix-blend-mode:multiply">
<path d="M180.345 49.257H180.39V48.8049H180.345V49.257Z" fill="white"/>
</g>
</mask>
<g mask="url(#mask9_6_95)">
<path d="M180.39 48.8046C180.361 49.0926 180.344 49.2566 180.344 49.2566H180.39V48.8046Z" fill="#231F20"/>
</g>
</g>
</g>
</g>
<path d="M242.459 180.328H240.592C240.558 180.087 240.489 179.872 240.384 179.685C240.278 179.494 240.143 179.332 239.979 179.199C239.814 179.065 239.624 178.963 239.408 178.892C239.195 178.821 238.963 178.786 238.713 178.786C238.261 178.786 237.868 178.898 237.533 179.122C237.197 179.344 236.938 179.668 236.753 180.094C236.568 180.517 236.476 181.031 236.476 181.636C236.476 182.259 236.568 182.781 236.753 183.205C236.94 183.628 237.202 183.947 237.537 184.163C237.872 184.379 238.26 184.487 238.7 184.487C238.947 184.487 239.176 184.455 239.386 184.389C239.599 184.324 239.788 184.229 239.953 184.104C240.118 183.976 240.254 183.821 240.362 183.639C240.473 183.457 240.55 183.25 240.592 183.017L242.459 183.026C242.411 183.426 242.29 183.812 242.097 184.185C241.906 184.554 241.649 184.885 241.325 185.178C241.004 185.467 240.621 185.697 240.175 185.868C239.732 186.036 239.23 186.119 238.67 186.119C237.892 186.119 237.196 185.943 236.582 185.591C235.972 185.239 235.489 184.729 235.134 184.061C234.781 183.393 234.605 182.585 234.605 181.636C234.605 180.685 234.784 179.875 235.142 179.207C235.5 178.54 235.986 178.031 236.599 177.682C237.213 177.33 237.903 177.153 238.67 177.153C239.176 177.153 239.645 177.224 240.077 177.366C240.511 177.509 240.896 177.716 241.232 177.989C241.567 178.259 241.839 178.589 242.05 178.982C242.263 179.374 242.399 179.822 242.459 180.328ZM245.342 186V177.273H247.187V184.479H250.929V186H245.342ZM261.391 181.636C261.391 182.588 261.21 183.398 260.849 184.065C260.491 184.733 260.003 185.243 259.383 185.595C258.767 185.945 258.074 186.119 257.304 186.119C256.528 186.119 255.832 185.943 255.216 185.591C254.599 185.239 254.112 184.729 253.754 184.061C253.396 183.393 253.217 182.585 253.217 181.636C253.217 180.685 253.396 179.875 253.754 179.207C254.112 178.54 254.599 178.031 255.216 177.682C255.832 177.33 256.528 177.153 257.304 177.153C258.074 177.153 258.767 177.33 259.383 177.682C260.003 178.031 260.491 178.54 260.849 179.207C261.21 179.875 261.391 180.685 261.391 181.636ZM259.52 181.636C259.52 181.02 259.428 180.5 259.243 180.077C259.061 179.653 258.804 179.332 258.472 179.114C258.139 178.895 257.75 178.786 257.304 178.786C256.858 178.786 256.469 178.895 256.136 179.114C255.804 179.332 255.545 179.653 255.361 180.077C255.179 180.5 255.088 181.02 255.088 181.636C255.088 182.253 255.179 182.773 255.361 183.196C255.545 183.619 255.804 183.94 256.136 184.159C256.469 184.378 256.858 184.487 257.304 184.487C257.75 184.487 258.139 184.378 258.472 184.159C258.804 183.94 259.061 183.619 259.243 183.196C259.428 182.773 259.52 182.253 259.52 181.636ZM269.052 179.783C269.018 179.439 268.871 179.172 268.613 178.982C268.354 178.791 268.004 178.696 267.56 178.696C267.259 178.696 267.005 178.739 266.798 178.824C266.59 178.906 266.431 179.021 266.32 179.169C266.212 179.317 266.158 179.484 266.158 179.672C266.153 179.828 266.185 179.964 266.256 180.081C266.33 180.197 266.431 180.298 266.559 180.384C266.687 180.466 266.834 180.538 267.002 180.601C267.17 180.661 267.349 180.712 267.539 180.754L268.323 180.942C268.704 181.027 269.053 181.141 269.371 181.283C269.69 181.425 269.965 181.599 270.198 181.807C270.431 182.014 270.611 182.259 270.739 182.54C270.87 182.821 270.937 183.143 270.94 183.507C270.937 184.041 270.8 184.504 270.53 184.896C270.263 185.286 269.877 185.588 269.371 185.804C268.869 186.017 268.262 186.124 267.552 186.124C266.847 186.124 266.234 186.016 265.711 185.8C265.191 185.584 264.785 185.264 264.492 184.841C264.202 184.415 264.05 183.888 264.036 183.26H265.822C265.842 183.553 265.925 183.797 266.073 183.993C266.224 184.186 266.424 184.332 266.674 184.432C266.927 184.528 267.212 184.577 267.53 184.577C267.843 184.577 268.114 184.531 268.344 184.44C268.577 184.349 268.758 184.223 268.886 184.061C269.013 183.899 269.077 183.713 269.077 183.503C269.077 183.307 269.019 183.142 268.903 183.009C268.789 182.875 268.621 182.761 268.4 182.668C268.181 182.574 267.913 182.489 267.594 182.412L266.644 182.173C265.908 181.994 265.327 181.714 264.901 181.334C264.475 180.953 264.263 180.44 264.266 179.795C264.263 179.267 264.404 178.805 264.688 178.411C264.975 178.016 265.369 177.707 265.869 177.486C266.369 177.264 266.937 177.153 267.573 177.153C268.221 177.153 268.786 177.264 269.269 177.486C269.755 177.707 270.133 178.016 270.403 178.411C270.673 178.805 270.812 179.263 270.82 179.783H269.052ZM273.741 186V177.273H279.621V178.794H275.586V180.874H279.319V182.395H275.586V184.479H279.638V186H273.741ZM282.316 178.794V177.273H289.484V178.794H286.812V186H284.988V178.794H282.316ZM296.958 179.783C296.924 179.439 296.778 179.172 296.519 178.982C296.261 178.791 295.91 178.696 295.467 178.696C295.166 178.696 294.911 178.739 294.704 178.824C294.497 178.906 294.338 179.021 294.227 179.169C294.119 179.317 294.065 179.484 294.065 179.672C294.059 179.828 294.092 179.964 294.163 180.081C294.237 180.197 294.338 180.298 294.465 180.384C294.593 180.466 294.741 180.538 294.909 180.601C295.076 180.661 295.255 180.712 295.446 180.754L296.23 180.942C296.61 181.027 296.96 181.141 297.278 181.283C297.596 181.425 297.872 181.599 298.105 181.807C298.338 182.014 298.518 182.259 298.646 182.54C298.777 182.821 298.843 183.143 298.846 183.507C298.843 184.041 298.707 184.504 298.437 184.896C298.17 185.286 297.784 185.588 297.278 185.804C296.775 186.017 296.169 186.124 295.458 186.124C294.754 186.124 294.14 186.016 293.617 185.8C293.098 185.584 292.691 185.264 292.399 184.841C292.109 184.415 291.957 183.888 291.943 183.26H293.728C293.748 183.553 293.832 183.797 293.98 183.993C294.13 184.186 294.331 184.332 294.581 184.432C294.833 184.528 295.119 184.577 295.437 184.577C295.75 184.577 296.021 184.531 296.251 184.44C296.484 184.349 296.664 184.223 296.792 184.061C296.92 183.899 296.984 183.713 296.984 183.503C296.984 183.307 296.926 183.142 296.809 183.009C296.696 182.875 296.528 182.761 296.306 182.668C296.088 182.574 295.819 182.489 295.501 182.412L294.551 182.173C293.815 181.994 293.234 181.714 292.808 181.334C292.382 180.953 292.17 180.44 292.173 179.795C292.17 179.267 292.311 178.805 292.595 178.411C292.882 178.016 293.275 177.707 293.775 177.486C294.275 177.264 294.843 177.153 295.48 177.153C296.127 177.153 296.693 177.264 297.176 177.486C297.661 177.707 298.039 178.016 298.309 178.411C298.579 178.805 298.718 179.263 298.727 179.783H296.958ZM313.284 177.273V186H311.691L307.894 180.507H307.83V186H305.985V177.273H307.604L311.371 182.761H311.448V177.273H313.284ZM319.863 177.273H321.687V183.358C321.687 183.92 321.561 184.409 321.308 184.824C321.058 185.239 320.71 185.558 320.264 185.783C319.818 186.007 319.299 186.119 318.708 186.119C318.183 186.119 317.705 186.027 317.277 185.842C316.85 185.655 316.512 185.371 316.262 184.99C316.012 184.607 315.889 184.125 315.892 183.545H317.728C317.734 183.776 317.781 183.973 317.869 184.138C317.96 184.3 318.083 184.425 318.24 184.513C318.399 184.598 318.586 184.641 318.802 184.641C319.029 184.641 319.221 184.592 319.377 184.496C319.536 184.396 319.657 184.251 319.74 184.061C319.822 183.871 319.863 183.636 319.863 183.358V177.273ZM329.11 186V177.273H330.955V184.479H334.697V186H329.11ZM337.479 186V177.273H339.324V184.479H343.065V186H337.479ZM353.208 180.328H351.341C351.307 180.087 351.237 179.872 351.132 179.685C351.027 179.494 350.892 179.332 350.727 179.199C350.563 179.065 350.372 178.963 350.156 178.892C349.943 178.821 349.712 178.786 349.462 178.786C349.01 178.786 348.617 178.898 348.281 179.122C347.946 179.344 347.686 179.668 347.502 180.094C347.317 180.517 347.225 181.031 347.225 181.636C347.225 182.259 347.317 182.781 347.502 183.205C347.689 183.628 347.95 183.947 348.286 184.163C348.621 184.379 349.009 184.487 349.449 184.487C349.696 184.487 349.925 184.455 350.135 184.389C350.348 184.324 350.537 184.229 350.702 184.104C350.867 183.976 351.003 183.821 351.111 183.639C351.222 183.457 351.298 183.25 351.341 183.017L353.208 183.026C353.159 183.426 353.039 183.812 352.845 184.185C352.655 184.554 352.398 184.885 352.074 185.178C351.753 185.467 351.369 185.697 350.923 185.868C350.48 186.036 349.979 186.119 349.419 186.119C348.641 186.119 347.945 185.943 347.331 185.591C346.72 185.239 346.237 184.729 345.882 184.061C345.53 183.393 345.354 182.585 345.354 181.636C345.354 180.685 345.533 179.875 345.891 179.207C346.249 178.54 346.735 178.031 347.348 177.682C347.962 177.33 348.652 177.153 349.419 177.153C349.925 177.153 350.394 177.224 350.825 177.366C351.26 177.509 351.645 177.716 351.98 177.989C352.316 178.259 352.588 178.589 352.798 178.982C353.012 179.374 353.148 179.822 353.208 180.328Z" fill="white"/>
</g>
<defs>
<clipPath id="clip0_6_95">
<rect width="370" height="197" fill="white"/>
</clipPath>
</defs>
</svg>
